<mxfile host="app.diagrams.net" agent="Mozilla/5.0 (Windows NT 10.0; Win64; x64; rv:140.0) Gecko/20100101 Firefox/140.0" version="27.1.6">
  <diagram name="Page-1" id="ZV4ZPjFq8iab742nGZkD">
    <mxGraphModel dx="1898" dy="659" grid="1" gridSize="10" guides="1" tooltips="1" connect="1" arrows="1" fold="1" page="1" pageScale="1" pageWidth="850" pageHeight="1100" math="0" shadow="0">
      <root>
        <mxCell id="xkZyKJ5uq6sU9dAtWqVg-0" />
        <mxCell id="xkZyKJ5uq6sU9dAtWqVg-1" parent="xkZyKJ5uq6sU9dAtWqVg-0" />
        <mxCell id="5RRhg4thibyP128AycnL-0" value="Sistema Planetario" style="whiteSpace=wrap;html=1;align=center;" parent="xkZyKJ5uq6sU9dAtWqVg-1" vertex="1">
          <mxGeometry x="786" y="90" width="100" height="40" as="geometry" />
        </mxCell>
        <mxCell id="5RRhg4thibyP128AycnL-1" value="appartiene a" style="shape=rhombus;double=1;perimeter=rhombusPerimeter;whiteSpace=wrap;html=1;align=center;" parent="xkZyKJ5uq6sU9dAtWqVg-1" vertex="1">
          <mxGeometry x="776" y="160" width="120" height="60" as="geometry" />
        </mxCell>
        <mxCell id="5RRhg4thibyP128AycnL-2" value="Pianeta" style="shape=ext;margin=3;double=1;whiteSpace=wrap;html=1;align=center;" parent="xkZyKJ5uq6sU9dAtWqVg-1" vertex="1">
          <mxGeometry x="786" y="280" width="100" height="40" as="geometry" />
        </mxCell>
        <mxCell id="5RRhg4thibyP128AycnL-3" value="" style="shape=link;html=1;rounded=0;exitX=0.5;exitY=1;exitDx=0;exitDy=0;entryX=0.5;entryY=0;entryDx=0;entryDy=0;" parent="xkZyKJ5uq6sU9dAtWqVg-1" source="5RRhg4thibyP128AycnL-0" target="5RRhg4thibyP128AycnL-1" edge="1">
          <mxGeometry relative="1" as="geometry">
            <mxPoint x="1086" y="120" as="sourcePoint" />
            <mxPoint x="1246" y="120" as="targetPoint" />
          </mxGeometry>
        </mxCell>
        <mxCell id="5RRhg4thibyP128AycnL-4" value="1" style="resizable=0;html=1;whiteSpace=wrap;align=right;verticalAlign=bottom;" parent="5RRhg4thibyP128AycnL-3" connectable="0" vertex="1">
          <mxGeometry x="1" relative="1" as="geometry">
            <mxPoint x="20" y="-4" as="offset" />
          </mxGeometry>
        </mxCell>
        <mxCell id="5RRhg4thibyP128AycnL-5" value="" style="shape=link;html=1;rounded=0;exitX=0.5;exitY=1;exitDx=0;exitDy=0;entryX=0.5;entryY=0;entryDx=0;entryDy=0;" parent="xkZyKJ5uq6sU9dAtWqVg-1" source="5RRhg4thibyP128AycnL-1" target="5RRhg4thibyP128AycnL-2" edge="1">
          <mxGeometry relative="1" as="geometry">
            <mxPoint x="1166" y="70" as="sourcePoint" />
            <mxPoint x="1326" y="70" as="targetPoint" />
          </mxGeometry>
        </mxCell>
        <mxCell id="5RRhg4thibyP128AycnL-6" value="N" style="resizable=0;html=1;whiteSpace=wrap;align=right;verticalAlign=bottom;" parent="5RRhg4thibyP128AycnL-5" connectable="0" vertex="1">
          <mxGeometry x="1" relative="1" as="geometry">
            <mxPoint x="22" y="-20" as="offset" />
          </mxGeometry>
        </mxCell>
        <mxCell id="5RRhg4thibyP128AycnL-15" value="Partita di Minerali" style="whiteSpace=wrap;html=1;align=center;" parent="xkZyKJ5uq6sU9dAtWqVg-1" vertex="1">
          <mxGeometry x="60" y="980" width="100" height="40" as="geometry" />
        </mxCell>
        <mxCell id="5RRhg4thibyP128AycnL-17" value="D" style="ellipse;whiteSpace=wrap;html=1;aspect=fixed;" parent="xkZyKJ5uq6sU9dAtWqVg-1" vertex="1">
          <mxGeometry x="435" y="605" width="30" height="30" as="geometry" />
        </mxCell>
        <mxCell id="5RRhg4thibyP128AycnL-18" value="" style="endArrow=classic;html=1;rounded=0;exitX=0.5;exitY=1;exitDx=0;exitDy=0;entryX=0.5;entryY=0;entryDx=0;entryDy=0;" parent="xkZyKJ5uq6sU9dAtWqVg-1" source="5RRhg4thibyP128AycnL-17" target="5RRhg4thibyP128AycnL-19" edge="1">
          <mxGeometry width="50" height="50" relative="1" as="geometry">
            <mxPoint x="435" y="840" as="sourcePoint" />
            <mxPoint x="330.0000000000002" y="760" as="targetPoint" />
            <Array as="points">
              <mxPoint x="450" y="670" />
              <mxPoint x="110" y="670" />
            </Array>
          </mxGeometry>
        </mxCell>
        <mxCell id="5RRhg4thibyP128AycnL-19" value="Mineraria" style="whiteSpace=wrap;html=1;align=center;" parent="xkZyKJ5uq6sU9dAtWqVg-1" vertex="1">
          <mxGeometry x="60" y="785" width="100" height="40" as="geometry" />
        </mxCell>
        <mxCell id="5RRhg4thibyP128AycnL-20" value="Trasporti" style="whiteSpace=wrap;html=1;align=center;" parent="xkZyKJ5uq6sU9dAtWqVg-1" vertex="1">
          <mxGeometry x="540" y="785" width="100" height="40" as="geometry" />
        </mxCell>
        <mxCell id="5RRhg4thibyP128AycnL-22" value="" style="endArrow=classic;html=1;rounded=0;exitX=0.5;exitY=1;exitDx=0;exitDy=0;entryX=0.5;entryY=0;entryDx=0;entryDy=0;" parent="xkZyKJ5uq6sU9dAtWqVg-1" source="5RRhg4thibyP128AycnL-17" target="5RRhg4thibyP128AycnL-23" edge="1">
          <mxGeometry width="50" height="50" relative="1" as="geometry">
            <mxPoint x="600" y="640" as="sourcePoint" />
            <mxPoint x="450" y="760" as="targetPoint" />
          </mxGeometry>
        </mxCell>
        <mxCell id="5RRhg4thibyP128AycnL-23" value="Bellica" style="whiteSpace=wrap;html=1;align=center;" parent="xkZyKJ5uq6sU9dAtWqVg-1" vertex="1">
          <mxGeometry x="400" y="785" width="100" height="40" as="geometry" />
        </mxCell>
        <mxCell id="5RRhg4thibyP128AycnL-24" value="D" style="ellipse;whiteSpace=wrap;html=1;aspect=fixed;" parent="xkZyKJ5uq6sU9dAtWqVg-1" vertex="1">
          <mxGeometry x="10" y="985" width="30" height="30" as="geometry" />
        </mxCell>
        <mxCell id="5RRhg4thibyP128AycnL-26" value="Cristalli di Plutonio" style="whiteSpace=wrap;html=1;align=center;" parent="xkZyKJ5uq6sU9dAtWqVg-1" vertex="1">
          <mxGeometry x="-170" y="910" width="100" height="40" as="geometry" />
        </mxCell>
        <mxCell id="5RRhg4thibyP128AycnL-28" value="Nanosabbia di Dune Profonde" style="whiteSpace=wrap;html=1;align=center;" parent="xkZyKJ5uq6sU9dAtWqVg-1" vertex="1">
          <mxGeometry x="-170" y="1048" width="100" height="40" as="geometry" />
        </mxCell>
        <mxCell id="5RRhg4thibyP128AycnL-30" value="Ferro Titanico" style="whiteSpace=wrap;html=1;align=center;" parent="xkZyKJ5uq6sU9dAtWqVg-1" vertex="1">
          <mxGeometry x="-170" y="980" width="100" height="40" as="geometry" />
        </mxCell>
        <mxCell id="5RRhg4thibyP128AycnL-31" value="" style="endArrow=none;html=1;rounded=0;exitX=0;exitY=0.5;exitDx=0;exitDy=0;entryX=1;entryY=0.5;entryDx=0;entryDy=0;" parent="xkZyKJ5uq6sU9dAtWqVg-1" source="5RRhg4thibyP128AycnL-15" target="5RRhg4thibyP128AycnL-24" edge="1">
          <mxGeometry relative="1" as="geometry">
            <mxPoint x="-260" y="870" as="sourcePoint" />
            <mxPoint x="-260" y="890" as="targetPoint" />
          </mxGeometry>
        </mxCell>
        <mxCell id="5RRhg4thibyP128AycnL-35" value="Divisione Imperiale" style="whiteSpace=wrap;html=1;align=center;" parent="xkZyKJ5uq6sU9dAtWqVg-1" vertex="1">
          <mxGeometry x="1365" y="878" width="100" height="40" as="geometry" />
        </mxCell>
        <mxCell id="5RRhg4thibyP128AycnL-36" value="Gruppo ribelle" style="whiteSpace=wrap;html=1;align=center;" parent="xkZyKJ5uq6sU9dAtWqVg-1" vertex="1">
          <mxGeometry x="1010" y="276" width="100" height="40" as="geometry" />
        </mxCell>
        <mxCell id="5RRhg4thibyP128AycnL-39" value="" style="endArrow=none;html=1;rounded=0;exitX=0.5;exitY=1;exitDx=0;exitDy=0;entryX=0.5;entryY=0;entryDx=0;entryDy=0;" parent="xkZyKJ5uq6sU9dAtWqVg-1" source="5RRhg4thibyP128AycnL-43" target="5RRhg4thibyP128AycnL-40" edge="1">
          <mxGeometry relative="1" as="geometry">
            <mxPoint x="1015" y="1012.25" as="sourcePoint" />
            <mxPoint x="1015" y="1032.25" as="targetPoint" />
          </mxGeometry>
        </mxCell>
        <mxCell id="5RRhg4thibyP128AycnL-40" value="D" style="ellipse;whiteSpace=wrap;html=1;aspect=fixed;" parent="xkZyKJ5uq6sU9dAtWqVg-1" vertex="1">
          <mxGeometry x="870" y="1023" width="30" height="30" as="geometry" />
        </mxCell>
        <mxCell id="5RRhg4thibyP128AycnL-41" value="Da Combattimento" style="whiteSpace=wrap;html=1;align=center;" parent="xkZyKJ5uq6sU9dAtWqVg-1" vertex="1">
          <mxGeometry x="955" y="1078" width="100" height="40" as="geometry" />
        </mxCell>
        <mxCell id="5RRhg4thibyP128AycnL-42" value="Mercantile" style="whiteSpace=wrap;html=1;align=center;" parent="xkZyKJ5uq6sU9dAtWqVg-1" vertex="1">
          <mxGeometry x="755" y="1079" width="100" height="40" as="geometry" />
        </mxCell>
        <mxCell id="5RRhg4thibyP128AycnL-43" value="Navi" style="whiteSpace=wrap;html=1;align=center;" parent="xkZyKJ5uq6sU9dAtWqVg-1" vertex="1">
          <mxGeometry x="835" y="963" width="100" height="40" as="geometry" />
        </mxCell>
        <mxCell id="5RRhg4thibyP128AycnL-51" value="" style="endArrow=none;html=1;rounded=0;entryX=1;entryY=0.5;entryDx=0;entryDy=0;startArrow=none;startFill=0;shape=link;exitX=0;exitY=0.5;exitDx=0;exitDy=0;" parent="xkZyKJ5uq6sU9dAtWqVg-1" target="jT7q4GYJzDAXKeNE5UMb-1" edge="1">
          <mxGeometry relative="1" as="geometry">
            <mxPoint x="750" y="620" as="sourcePoint" />
            <mxPoint x="650" y="620" as="targetPoint" />
          </mxGeometry>
        </mxCell>
        <mxCell id="5RRhg4thibyP128AycnL-52" value="N" style="resizable=0;html=1;whiteSpace=wrap;align=right;verticalAlign=bottom;" parent="5RRhg4thibyP128AycnL-51" connectable="0" vertex="1">
          <mxGeometry x="1" relative="1" as="geometry">
            <mxPoint x="50" y="-3" as="offset" />
          </mxGeometry>
        </mxCell>
        <mxCell id="5RRhg4thibyP128AycnL-53" value="" style="endArrow=none;html=1;rounded=0;exitX=0.5;exitY=0;exitDx=0;exitDy=0;entryX=1;entryY=0.5;entryDx=0;entryDy=0;" parent="xkZyKJ5uq6sU9dAtWqVg-1" source="jT7q4GYJzDAXKeNE5UMb-1" edge="1">
          <mxGeometry relative="1" as="geometry">
            <mxPoint x="600" y="590" as="sourcePoint" />
            <mxPoint x="500" y="560" as="targetPoint" />
            <Array as="points">
              <mxPoint x="600" y="560" />
            </Array>
          </mxGeometry>
        </mxCell>
        <mxCell id="5RRhg4thibyP128AycnL-54" value="1" style="resizable=0;html=1;whiteSpace=wrap;align=right;verticalAlign=bottom;" parent="5RRhg4thibyP128AycnL-53" connectable="0" vertex="1">
          <mxGeometry x="1" relative="1" as="geometry">
            <mxPoint x="36" y="-1" as="offset" />
          </mxGeometry>
        </mxCell>
        <mxCell id="5RRhg4thibyP128AycnL-55" value="Per LORE reason NON ci sono più aziende su un solo pianeta" style="whiteSpace=wrap;html=1;dashed=1;dashPattern=8 8;" parent="xkZyKJ5uq6sU9dAtWqVg-1" vertex="1">
          <mxGeometry x="432.5" y="311" width="110" height="80" as="geometry" />
        </mxCell>
        <mxCell id="5RRhg4thibyP128AycnL-56" value="Estrae" style="shape=rhombus;perimeter=rhombusPerimeter;whiteSpace=wrap;html=1;align=center;" parent="xkZyKJ5uq6sU9dAtWqVg-1" vertex="1">
          <mxGeometry x="50" y="870" width="120" height="60" as="geometry" />
        </mxCell>
        <mxCell id="5RRhg4thibyP128AycnL-59" value="" style="endArrow=none;html=1;rounded=0;exitX=0.5;exitY=1;exitDx=0;exitDy=0;entryX=0.5;entryY=0;entryDx=0;entryDy=0;" parent="xkZyKJ5uq6sU9dAtWqVg-1" source="5RRhg4thibyP128AycnL-19" target="5RRhg4thibyP128AycnL-56" edge="1">
          <mxGeometry relative="1" as="geometry">
            <mxPoint x="215" y="943" as="sourcePoint" />
            <mxPoint x="215" y="1013" as="targetPoint" />
          </mxGeometry>
        </mxCell>
        <mxCell id="5RRhg4thibyP128AycnL-60" value="1" style="resizable=0;html=1;whiteSpace=wrap;align=left;verticalAlign=bottom;" parent="5RRhg4thibyP128AycnL-59" connectable="0" vertex="1">
          <mxGeometry x="-1" relative="1" as="geometry">
            <mxPoint x="-16" y="31" as="offset" />
          </mxGeometry>
        </mxCell>
        <mxCell id="5RRhg4thibyP128AycnL-78" value="" style="endArrow=none;html=1;rounded=0;exitX=0.5;exitY=1;exitDx=0;exitDy=0;entryX=0.5;entryY=0;entryDx=0;entryDy=0;shape=link;" parent="xkZyKJ5uq6sU9dAtWqVg-1" edge="1">
          <mxGeometry relative="1" as="geometry">
            <mxPoint x="425.5" y="1009.5" as="sourcePoint" />
            <mxPoint x="425" y="1070" as="targetPoint" />
          </mxGeometry>
        </mxCell>
        <mxCell id="5RRhg4thibyP128AycnL-79" value="N" style="resizable=0;html=1;whiteSpace=wrap;align=left;verticalAlign=bottom;" parent="5RRhg4thibyP128AycnL-78" connectable="0" vertex="1">
          <mxGeometry x="-1" relative="1" as="geometry">
            <mxPoint x="4" y="40" as="offset" />
          </mxGeometry>
        </mxCell>
        <mxCell id="5RRhg4thibyP128AycnL-80" value="" style="endArrow=none;html=1;rounded=0;exitX=0.25;exitY=1;exitDx=0;exitDy=0;entryX=0.5;entryY=0;entryDx=0;entryDy=0;" parent="xkZyKJ5uq6sU9dAtWqVg-1" source="5RRhg4thibyP128AycnL-23" edge="1">
          <mxGeometry relative="1" as="geometry">
            <mxPoint x="439.56999999999994" y="890" as="sourcePoint" />
            <mxPoint x="425.5" y="956.5" as="targetPoint" />
          </mxGeometry>
        </mxCell>
        <mxCell id="5RRhg4thibyP128AycnL-81" value="1" style="resizable=0;html=1;whiteSpace=wrap;align=left;verticalAlign=bottom;" parent="5RRhg4thibyP128AycnL-80" connectable="0" vertex="1">
          <mxGeometry x="-1" relative="1" as="geometry">
            <mxPoint x="-16" y="40" as="offset" />
          </mxGeometry>
        </mxCell>
        <mxCell id="5RRhg4thibyP128AycnL-87" value="Impiega" style="shape=rhombus;perimeter=rhombusPerimeter;whiteSpace=wrap;html=1;align=center;" parent="xkZyKJ5uq6sU9dAtWqVg-1" vertex="1">
          <mxGeometry x="550" y="868" width="80" height="60" as="geometry" />
        </mxCell>
        <mxCell id="5RRhg4thibyP128AycnL-88" value="" style="endArrow=none;html=1;rounded=0;exitX=0.5;exitY=1;exitDx=0;exitDy=0;entryX=0.5;entryY=0;entryDx=0;entryDy=0;" parent="xkZyKJ5uq6sU9dAtWqVg-1" source="5RRhg4thibyP128AycnL-87" target="5RRhg4thibyP128AycnL-42" edge="1">
          <mxGeometry relative="1" as="geometry">
            <mxPoint x="592" y="1020" as="sourcePoint" />
            <mxPoint x="720" y="1080" as="targetPoint" />
            <Array as="points">
              <mxPoint x="590" y="1030" />
              <mxPoint x="805" y="1030" />
            </Array>
          </mxGeometry>
        </mxCell>
        <mxCell id="5RRhg4thibyP128AycnL-89" value="N" style="resizable=0;html=1;whiteSpace=wrap;align=left;verticalAlign=bottom;" parent="5RRhg4thibyP128AycnL-88" connectable="0" vertex="1">
          <mxGeometry x="-1" relative="1" as="geometry">
            <mxPoint x="10" y="22" as="offset" />
          </mxGeometry>
        </mxCell>
        <mxCell id="5RRhg4thibyP128AycnL-96" value="viene trasportato attraverso" style="shape=rhombus;perimeter=rhombusPerimeter;whiteSpace=wrap;html=1;align=center;" parent="xkZyKJ5uq6sU9dAtWqVg-1" vertex="1">
          <mxGeometry x="547.5" y="1300" width="85" height="70" as="geometry" />
        </mxCell>
        <mxCell id="5RRhg4thibyP128AycnL-97" value="" style="endArrow=none;html=1;rounded=0;entryX=0.5;entryY=1;entryDx=0;entryDy=0;exitX=0.5;exitY=0;exitDx=0;exitDy=0;" parent="xkZyKJ5uq6sU9dAtWqVg-1" source="5RRhg4thibyP128AycnL-96" target="RKXKa0fFr_hQ-l0K3k0U-15" edge="1">
          <mxGeometry relative="1" as="geometry">
            <mxPoint x="740" y="1338" as="sourcePoint" />
            <mxPoint x="809.76" y="1238" as="targetPoint" />
            <Array as="points">
              <mxPoint x="590" y="1280" />
            </Array>
          </mxGeometry>
        </mxCell>
        <mxCell id="5RRhg4thibyP128AycnL-98" value="N" style="resizable=0;html=1;whiteSpace=wrap;align=left;verticalAlign=bottom;" parent="5RRhg4thibyP128AycnL-97" connectable="0" vertex="1">
          <mxGeometry x="-1" relative="1" as="geometry">
            <mxPoint x="4" y="-13" as="offset" />
          </mxGeometry>
        </mxCell>
        <mxCell id="5RRhg4thibyP128AycnL-99" value="arriva a" style="shape=rhombus;perimeter=rhombusPerimeter;whiteSpace=wrap;html=1;align=center;" parent="xkZyKJ5uq6sU9dAtWqVg-1" vertex="1">
          <mxGeometry x="650" y="868" width="80" height="60" as="geometry" />
        </mxCell>
        <mxCell id="5RRhg4thibyP128AycnL-100" value="" style="endArrow=none;html=1;rounded=0;entryX=0.5;entryY=0;entryDx=0;entryDy=0;exitX=0.25;exitY=1;exitDx=0;exitDy=0;" parent="xkZyKJ5uq6sU9dAtWqVg-1" target="5RRhg4thibyP128AycnL-99" edge="1">
          <mxGeometry relative="1" as="geometry">
            <mxPoint x="775" y="640" as="sourcePoint" />
            <mxPoint x="679.5699999999997" y="793.25" as="targetPoint" />
            <Array as="points">
              <mxPoint x="775" y="700" />
              <mxPoint x="690" y="700" />
            </Array>
          </mxGeometry>
        </mxCell>
        <mxCell id="5RRhg4thibyP128AycnL-102" value="1" style="edgeLabel;html=1;align=center;verticalAlign=middle;resizable=0;points=[];" parent="5RRhg4thibyP128AycnL-100" vertex="1" connectable="0">
          <mxGeometry x="-0.7079" y="6" relative="1" as="geometry">
            <mxPoint x="-75" y="254" as="offset" />
          </mxGeometry>
        </mxCell>
        <mxCell id="5RRhg4thibyP128AycnL-103" value="" style="endArrow=none;html=1;rounded=0;exitX=0.5;exitY=1;exitDx=0;exitDy=0;entryX=0.5;entryY=0;entryDx=0;entryDy=0;shape=link;" parent="xkZyKJ5uq6sU9dAtWqVg-1" source="5RRhg4thibyP128AycnL-99" edge="1">
          <mxGeometry relative="1" as="geometry">
            <mxPoint x="689.47" y="887.25" as="sourcePoint" />
            <mxPoint x="590" y="1160" as="targetPoint" />
            <Array as="points">
              <mxPoint x="690" y="1060" />
              <mxPoint x="590" y="1060" />
            </Array>
          </mxGeometry>
        </mxCell>
        <mxCell id="5RRhg4thibyP128AycnL-104" value="N" style="resizable=0;html=1;whiteSpace=wrap;align=left;verticalAlign=bottom;" parent="5RRhg4thibyP128AycnL-103" connectable="0" vertex="1">
          <mxGeometry x="-1" relative="1" as="geometry">
            <mxPoint x="-95" y="210" as="offset" />
          </mxGeometry>
        </mxCell>
        <mxCell id="5RRhg4thibyP128AycnL-105" value="flotta" style="whiteSpace=wrap;html=1;align=center;" parent="xkZyKJ5uq6sU9dAtWqVg-1" vertex="1">
          <mxGeometry x="1365" y="1349.25" width="100" height="40" as="geometry" />
        </mxCell>
        <mxCell id="5RRhg4thibyP128AycnL-106" value="appartiene a" style="shape=rhombus;perimeter=rhombusPerimeter;whiteSpace=wrap;html=1;align=center;" parent="xkZyKJ5uq6sU9dAtWqVg-1" vertex="1">
          <mxGeometry x="965" y="1227.25" width="80" height="60" as="geometry" />
        </mxCell>
        <mxCell id="5RRhg4thibyP128AycnL-107" value="" style="endArrow=none;html=1;rounded=0;entryX=0.5;entryY=1;entryDx=0;entryDy=0;exitX=0;exitY=0.75;exitDx=0;exitDy=0;" parent="xkZyKJ5uq6sU9dAtWqVg-1" source="5RRhg4thibyP128AycnL-105" target="5RRhg4thibyP128AycnL-106" edge="1">
          <mxGeometry relative="1" as="geometry">
            <mxPoint x="1285" y="1218.72" as="sourcePoint" />
            <mxPoint x="909.1300000000001" y="1218.72" as="targetPoint" />
            <Array as="points">
              <mxPoint x="1005" y="1380" />
            </Array>
          </mxGeometry>
        </mxCell>
        <mxCell id="5RRhg4thibyP128AycnL-108" value="1" style="resizable=0;html=1;whiteSpace=wrap;align=left;verticalAlign=bottom;" parent="5RRhg4thibyP128AycnL-107" connectable="0" vertex="1">
          <mxGeometry x="-1" relative="1" as="geometry">
            <mxPoint x="-130" y="23" as="offset" />
          </mxGeometry>
        </mxCell>
        <mxCell id="5RRhg4thibyP128AycnL-109" value="" style="endArrow=none;html=1;rounded=0;entryX=0.5;entryY=1;entryDx=0;entryDy=0;exitX=0.5;exitY=0;exitDx=0;exitDy=0;" parent="xkZyKJ5uq6sU9dAtWqVg-1" source="5RRhg4thibyP128AycnL-106" target="5RRhg4thibyP128AycnL-41" edge="1">
          <mxGeometry relative="1" as="geometry">
            <mxPoint x="1100" y="1359.25" as="sourcePoint" />
            <mxPoint x="724.1300000000001" y="1359.25" as="targetPoint" />
          </mxGeometry>
        </mxCell>
        <mxCell id="5RRhg4thibyP128AycnL-110" value="ha" style="shape=rhombus;perimeter=rhombusPerimeter;whiteSpace=wrap;html=1;align=center;" parent="xkZyKJ5uq6sU9dAtWqVg-1" vertex="1">
          <mxGeometry x="1375" y="1079" width="80" height="60" as="geometry" />
        </mxCell>
        <mxCell id="5RRhg4thibyP128AycnL-111" value="" style="endArrow=none;html=1;rounded=0;exitX=0.5;exitY=1;exitDx=0;exitDy=0;entryX=0.5;entryY=0;entryDx=0;entryDy=0;" parent="xkZyKJ5uq6sU9dAtWqVg-1" source="5RRhg4thibyP128AycnL-110" target="5RRhg4thibyP128AycnL-105" edge="1">
          <mxGeometry relative="1" as="geometry">
            <mxPoint x="1025" y="1237.25" as="sourcePoint" />
            <mxPoint x="1430" y="1230" as="targetPoint" />
            <Array as="points" />
          </mxGeometry>
        </mxCell>
        <mxCell id="5RRhg4thibyP128AycnL-113" value="" style="endArrow=classic;html=1;rounded=0;exitX=0.5;exitY=1;exitDx=0;exitDy=0;entryX=1;entryY=0.5;entryDx=0;entryDy=0;" parent="xkZyKJ5uq6sU9dAtWqVg-1" source="5RRhg4thibyP128AycnL-40" target="5RRhg4thibyP128AycnL-42" edge="1">
          <mxGeometry width="50" height="50" relative="1" as="geometry">
            <mxPoint x="864.4099999999999" y="1069" as="sourcePoint" />
            <mxPoint x="864.4099999999999" y="1129" as="targetPoint" />
            <Array as="points">
              <mxPoint x="885" y="1098" />
            </Array>
          </mxGeometry>
        </mxCell>
        <mxCell id="5RRhg4thibyP128AycnL-114" value="" style="endArrow=classic;html=1;rounded=0;entryX=0;entryY=0.5;entryDx=0;entryDy=0;exitX=0.5;exitY=1;exitDx=0;exitDy=0;" parent="xkZyKJ5uq6sU9dAtWqVg-1" source="5RRhg4thibyP128AycnL-40" target="5RRhg4thibyP128AycnL-41" edge="1">
          <mxGeometry width="50" height="50" relative="1" as="geometry">
            <mxPoint x="865" y="1068" as="sourcePoint" />
            <mxPoint x="965" y="1108" as="targetPoint" />
            <Array as="points">
              <mxPoint x="885" y="1098" />
            </Array>
          </mxGeometry>
        </mxCell>
        <mxCell id="5RRhg4thibyP128AycnL-115" value="" style="endArrow=none;html=1;rounded=0;entryX=0.5;entryY=0;entryDx=0;entryDy=0;exitX=0.5;exitY=1;exitDx=0;exitDy=0;" parent="xkZyKJ5uq6sU9dAtWqVg-1" source="5RRhg4thibyP128AycnL-35" target="5RRhg4thibyP128AycnL-110" edge="1">
          <mxGeometry relative="1" as="geometry">
            <mxPoint x="1430" y="1102" as="sourcePoint" />
            <mxPoint x="1210" y="1112" as="targetPoint" />
            <Array as="points" />
          </mxGeometry>
        </mxCell>
        <mxCell id="5RRhg4thibyP128AycnL-116" value="1" style="resizable=0;html=1;whiteSpace=wrap;align=left;verticalAlign=bottom;" parent="5RRhg4thibyP128AycnL-115" connectable="0" vertex="1">
          <mxGeometry x="-1" relative="1" as="geometry">
            <mxPoint x="10" y="95" as="offset" />
          </mxGeometry>
        </mxCell>
        <mxCell id="5RRhg4thibyP128AycnL-117" value="N" style="resizable=0;html=1;whiteSpace=wrap;align=left;verticalAlign=bottom;" parent="xkZyKJ5uq6sU9dAtWqVg-1" connectable="0" vertex="1">
          <mxGeometry x="1170" y="1280" as="geometry">
            <mxPoint x="-162" y="-99" as="offset" />
          </mxGeometry>
        </mxCell>
        <mxCell id="5RRhg4thibyP128AycnL-119" value="" style="endArrow=none;html=1;rounded=0;entryX=0;entryY=0.5;entryDx=0;entryDy=0;exitX=0.884;exitY=1.037;exitDx=0;exitDy=0;exitPerimeter=0;" parent="xkZyKJ5uq6sU9dAtWqVg-1" target="RKXKa0fFr_hQ-l0K3k0U-52" edge="1">
          <mxGeometry relative="1" as="geometry">
            <mxPoint x="838.4000000000001" y="641.48" as="sourcePoint" />
            <mxPoint x="890" y="1084.96" as="targetPoint" />
            <Array as="points">
              <mxPoint x="838" y="900" />
            </Array>
          </mxGeometry>
        </mxCell>
        <mxCell id="5RRhg4thibyP128AycnL-120" value="1" style="resizable=0;html=1;whiteSpace=wrap;align=left;verticalAlign=bottom;" parent="5RRhg4thibyP128AycnL-119" connectable="0" vertex="1">
          <mxGeometry x="-1" relative="1" as="geometry">
            <mxPoint x="25" y="435" as="offset" />
          </mxGeometry>
        </mxCell>
        <mxCell id="5RRhg4thibyP128AycnL-128" value="è&amp;nbsp;&lt;div&gt;comandata da&lt;/div&gt;" style="shape=rhombus;perimeter=rhombusPerimeter;whiteSpace=wrap;html=1;align=center;" parent="xkZyKJ5uq6sU9dAtWqVg-1" vertex="1">
          <mxGeometry x="1362.5" y="1419.25" width="105" height="60" as="geometry" />
        </mxCell>
        <mxCell id="5RRhg4thibyP128AycnL-129" value="" style="endArrow=none;html=1;rounded=0;entryX=0.5;entryY=0;entryDx=0;entryDy=0;exitX=0.5;exitY=1;exitDx=0;exitDy=0;" parent="xkZyKJ5uq6sU9dAtWqVg-1" source="5RRhg4thibyP128AycnL-105" target="5RRhg4thibyP128AycnL-128" edge="1">
          <mxGeometry relative="1" as="geometry">
            <mxPoint x="1415" y="1389" as="sourcePoint" />
            <mxPoint x="1404.5699999999997" y="1447.5" as="targetPoint" />
          </mxGeometry>
        </mxCell>
        <mxCell id="5RRhg4thibyP128AycnL-130" value="1" style="resizable=0;html=1;whiteSpace=wrap;align=left;verticalAlign=bottom;" parent="5RRhg4thibyP128AycnL-129" connectable="0" vertex="1">
          <mxGeometry x="-1" relative="1" as="geometry">
            <mxPoint x="5" y="30" as="offset" />
          </mxGeometry>
        </mxCell>
        <mxCell id="5RRhg4thibyP128AycnL-131" value="" style="endArrow=none;html=1;rounded=0;exitX=0.5;exitY=1;exitDx=0;exitDy=0;entryX=0.5;entryY=0;entryDx=0;entryDy=0;" parent="xkZyKJ5uq6sU9dAtWqVg-1" source="5RRhg4thibyP128AycnL-128" target="5RRhg4thibyP128AycnL-133" edge="1">
          <mxGeometry relative="1" as="geometry">
            <mxPoint x="1414.47" y="1451.5" as="sourcePoint" />
            <mxPoint x="1415" y="1508.25" as="targetPoint" />
          </mxGeometry>
        </mxCell>
        <mxCell id="5RRhg4thibyP128AycnL-132" value="1" style="resizable=0;html=1;whiteSpace=wrap;align=left;verticalAlign=bottom;" parent="5RRhg4thibyP128AycnL-131" connectable="0" vertex="1">
          <mxGeometry x="-1" relative="1" as="geometry">
            <mxPoint x="5" y="31" as="offset" />
          </mxGeometry>
        </mxCell>
        <mxCell id="5RRhg4thibyP128AycnL-133" value="Soth" style="whiteSpace=wrap;html=1;align=center;" parent="xkZyKJ5uq6sU9dAtWqVg-1" vertex="1">
          <mxGeometry x="1365" y="1520" width="100" height="40" as="geometry" />
        </mxCell>
        <mxCell id="5RRhg4thibyP128AycnL-140" value="" style="endArrow=classic;html=1;rounded=0;exitX=0.5;exitY=1;exitDx=0;exitDy=0;entryX=0.5;entryY=0;entryDx=0;entryDy=0;" parent="xkZyKJ5uq6sU9dAtWqVg-1" source="5RRhg4thibyP128AycnL-17" target="5RRhg4thibyP128AycnL-20" edge="1">
          <mxGeometry width="50" height="50" relative="1" as="geometry">
            <mxPoint x="460" y="630" as="sourcePoint" />
            <mxPoint x="180" y="674" as="targetPoint" />
            <Array as="points">
              <mxPoint x="450" y="670" />
              <mxPoint x="590" y="670" />
            </Array>
          </mxGeometry>
        </mxCell>
        <mxCell id="5RRhg4thibyP128AycnL-153" value="Nome Stella Principale" style="ellipse;whiteSpace=wrap;html=1;align=center;fontStyle=4;" parent="xkZyKJ5uq6sU9dAtWqVg-1" vertex="1">
          <mxGeometry x="794" y="30" width="84" height="40" as="geometry" />
        </mxCell>
        <mxCell id="5RRhg4thibyP128AycnL-154" value="" style="endArrow=none;html=1;rounded=0;entryX=0.5;entryY=1;entryDx=0;entryDy=0;exitX=0.5;exitY=0;exitDx=0;exitDy=0;" parent="xkZyKJ5uq6sU9dAtWqVg-1" source="5RRhg4thibyP128AycnL-0" target="5RRhg4thibyP128AycnL-153" edge="1">
          <mxGeometry width="50" height="50" relative="1" as="geometry">
            <mxPoint x="1091" y="-230" as="sourcePoint" />
            <mxPoint x="1071" y="-190" as="targetPoint" />
          </mxGeometry>
        </mxCell>
        <mxCell id="5RRhg4thibyP128AycnL-155" value="&lt;span style=&quot;border-bottom: 1px dotted;&quot;&gt;Nome Pianeta&lt;/span&gt;" style="ellipse;whiteSpace=wrap;html=1;align=center;" parent="xkZyKJ5uq6sU9dAtWqVg-1" vertex="1">
          <mxGeometry x="717" y="220" width="60" height="40" as="geometry" />
        </mxCell>
        <mxCell id="5RRhg4thibyP128AycnL-156" value="" style="endArrow=none;html=1;rounded=0;exitX=0;exitY=0;exitDx=0;exitDy=0;entryX=0.822;entryY=1.02;entryDx=0;entryDy=0;entryPerimeter=0;" parent="xkZyKJ5uq6sU9dAtWqVg-1" source="5RRhg4thibyP128AycnL-2" target="5RRhg4thibyP128AycnL-155" edge="1">
          <mxGeometry width="50" height="50" relative="1" as="geometry">
            <mxPoint x="1000" y="220" as="sourcePoint" />
            <mxPoint x="770.1421356237306" y="265.6066017177982" as="targetPoint" />
          </mxGeometry>
        </mxCell>
        <mxCell id="5RRhg4thibyP128AycnL-158" value="" style="endArrow=none;html=1;rounded=0;entryX=1;entryY=0;entryDx=0;entryDy=0;exitX=-0.001;exitY=0.872;exitDx=0;exitDy=0;exitPerimeter=0;" parent="xkZyKJ5uq6sU9dAtWqVg-1" edge="1">
          <mxGeometry width="50" height="50" relative="1" as="geometry">
            <mxPoint x="399.89999999999986" y="574.8800000000001" as="sourcePoint" />
            <mxPoint x="368.35012492854526" y="587.363585073521" as="targetPoint" />
          </mxGeometry>
        </mxCell>
        <mxCell id="5RRhg4thibyP128AycnL-163" value="" style="endArrow=none;html=1;rounded=0;exitX=1;exitY=0.5;exitDx=0;exitDy=0;entryX=0;entryY=0.5;entryDx=0;entryDy=0;" parent="xkZyKJ5uq6sU9dAtWqVg-1" source="skqzL_gy3SJHRYQdTLHT-18" target="skqzL_gy3SJHRYQdTLHT-11" edge="1">
          <mxGeometry relative="1" as="geometry">
            <mxPoint x="344.49999999999886" y="1087.5" as="sourcePoint" />
            <mxPoint x="375" y="1080" as="targetPoint" />
          </mxGeometry>
        </mxCell>
        <mxCell id="5RRhg4thibyP128AycnL-164" value="Etichetta partita" style="ellipse;whiteSpace=wrap;html=1;align=center;fontStyle=4;" parent="xkZyKJ5uq6sU9dAtWqVg-1" vertex="1">
          <mxGeometry x="20" y="1053" width="75" height="37.5" as="geometry" />
        </mxCell>
        <mxCell id="5RRhg4thibyP128AycnL-166" value="nome&lt;div&gt;nave&lt;/div&gt;" style="ellipse;whiteSpace=wrap;html=1;align=center;fontStyle=4;" parent="xkZyKJ5uq6sU9dAtWqVg-1" vertex="1">
          <mxGeometry x="925" y="1023" width="45" height="30" as="geometry" />
        </mxCell>
        <mxCell id="5RRhg4thibyP128AycnL-167" value="" style="endArrow=none;html=1;rounded=0;exitX=0;exitY=0;exitDx=0;exitDy=0;entryX=0.851;entryY=0.992;entryDx=0;entryDy=0;entryPerimeter=0;" parent="xkZyKJ5uq6sU9dAtWqVg-1" source="5RRhg4thibyP128AycnL-166" target="5RRhg4thibyP128AycnL-43" edge="1">
          <mxGeometry relative="1" as="geometry">
            <mxPoint x="777.5" y="885.5" as="sourcePoint" />
            <mxPoint x="945" y="993" as="targetPoint" />
          </mxGeometry>
        </mxCell>
        <mxCell id="5RRhg4thibyP128AycnL-168" value="ID chip cibernetico" style="ellipse;whiteSpace=wrap;html=1;align=center;fontStyle=4;" parent="xkZyKJ5uq6sU9dAtWqVg-1" vertex="1">
          <mxGeometry x="1490" y="1517.5" width="70" height="45" as="geometry" />
        </mxCell>
        <mxCell id="5RRhg4thibyP128AycnL-169" value="" style="endArrow=none;html=1;rounded=0;exitX=0;exitY=0.5;exitDx=0;exitDy=0;entryX=1;entryY=0.5;entryDx=0;entryDy=0;" parent="xkZyKJ5uq6sU9dAtWqVg-1" source="5RRhg4thibyP128AycnL-168" edge="1">
          <mxGeometry relative="1" as="geometry">
            <mxPoint x="1297.5" y="1432.5" as="sourcePoint" />
            <mxPoint x="1465" y="1540" as="targetPoint" />
          </mxGeometry>
        </mxCell>
        <mxCell id="5RRhg4thibyP128AycnL-170" value="numero&lt;div&gt;armata&lt;/div&gt;" style="ellipse;whiteSpace=wrap;html=1;align=center;fontStyle=4;" parent="xkZyKJ5uq6sU9dAtWqVg-1" vertex="1">
          <mxGeometry x="1427.25" y="778" width="57.5" height="42" as="geometry" />
        </mxCell>
        <mxCell id="5RRhg4thibyP128AycnL-171" value="" style="endArrow=none;html=1;rounded=0;exitX=0.5;exitY=1;exitDx=0;exitDy=0;entryX=0.646;entryY=0.029;entryDx=0;entryDy=0;entryPerimeter=0;" parent="xkZyKJ5uq6sU9dAtWqVg-1" source="5RRhg4thibyP128AycnL-170" target="5RRhg4thibyP128AycnL-35" edge="1">
          <mxGeometry relative="1" as="geometry">
            <mxPoint x="1369.75" y="985.5" as="sourcePoint" />
            <mxPoint x="1537.25" y="1093" as="targetPoint" />
          </mxGeometry>
        </mxCell>
        <mxCell id="5RRhg4thibyP128AycnL-173" value="" style="endArrow=none;html=1;rounded=0;exitX=0.5;exitY=1;exitDx=0;exitDy=0;entryX=0.924;entryY=-0.005;entryDx=0;entryDy=0;entryPerimeter=0;" parent="xkZyKJ5uq6sU9dAtWqVg-1" target="5RRhg4thibyP128AycnL-35" edge="1">
          <mxGeometry relative="1" as="geometry">
            <mxPoint x="1499.7499999999995" y="858.0000000000002" as="sourcePoint" />
            <mxPoint x="1494.25" y="1113" as="targetPoint" />
          </mxGeometry>
        </mxCell>
        <mxCell id="5RRhg4thibyP128AycnL-184" value="" style="shape=link;html=1;rounded=0;exitX=0.5;exitY=1;exitDx=0;exitDy=0;entryX=0.5;entryY=0;entryDx=0;entryDy=0;" parent="xkZyKJ5uq6sU9dAtWqVg-1" target="5RRhg4thibyP128AycnL-17" edge="1">
          <mxGeometry relative="1" as="geometry">
            <mxPoint x="450" y="580" as="sourcePoint" />
            <mxPoint x="410" y="789.29" as="targetPoint" />
          </mxGeometry>
        </mxCell>
        <mxCell id="5RRhg4thibyP128AycnL-186" value="" style="shape=link;html=1;rounded=0;exitX=0.5;exitY=1;exitDx=0;exitDy=0;entryX=0.5;entryY=0;entryDx=0;entryDy=0;" parent="xkZyKJ5uq6sU9dAtWqVg-1" source="5RRhg4thibyP128AycnL-56" target="5RRhg4thibyP128AycnL-15" edge="1">
          <mxGeometry relative="1" as="geometry">
            <mxPoint x="370" y="1045" as="sourcePoint" />
            <mxPoint x="530" y="1045" as="targetPoint" />
          </mxGeometry>
        </mxCell>
        <mxCell id="5RRhg4thibyP128AycnL-187" value="N" style="resizable=0;html=1;whiteSpace=wrap;align=right;verticalAlign=bottom;" parent="5RRhg4thibyP128AycnL-186" connectable="0" vertex="1">
          <mxGeometry x="1" relative="1" as="geometry">
            <mxPoint x="-7" y="-14" as="offset" />
          </mxGeometry>
        </mxCell>
        <mxCell id="5RRhg4thibyP128AycnL-188" value="Nel database vengono tracciati solo alcuni tipi di materiali necessari per il funzionamento delle infrastrutture dell&#39;impero" style="whiteSpace=wrap;html=1;dashed=1;dashPattern=8 8;" parent="xkZyKJ5uq6sU9dAtWqVg-1" vertex="1">
          <mxGeometry x="-130" y="770" width="130" height="105" as="geometry" />
        </mxCell>
        <mxCell id="5RRhg4thibyP128AycnL-190" value="" style="shape=link;html=1;rounded=0;entryX=0;entryY=0.5;entryDx=0;entryDy=0;exitX=0.5;exitY=1;exitDx=0;exitDy=0;" parent="xkZyKJ5uq6sU9dAtWqVg-1" source="jT7q4GYJzDAXKeNE5UMb-3" target="5RRhg4thibyP128AycnL-43" edge="1">
          <mxGeometry relative="1" as="geometry">
            <mxPoint x="479" y="987" as="sourcePoint" />
            <mxPoint x="835" y="1025" as="targetPoint" />
            <Array as="points">
              <mxPoint x="479" y="983" />
            </Array>
          </mxGeometry>
        </mxCell>
        <mxCell id="5RRhg4thibyP128AycnL-191" value="N" style="resizable=0;html=1;whiteSpace=wrap;align=right;verticalAlign=bottom;" parent="5RRhg4thibyP128AycnL-190" connectable="0" vertex="1">
          <mxGeometry x="1" relative="1" as="geometry">
            <mxPoint x="-325" y="-13" as="offset" />
          </mxGeometry>
        </mxCell>
        <mxCell id="5RRhg4thibyP128AycnL-199" value="I soth sono potenti maghi passati al lato oscuro e a servizio dell&#39;impero, culturalmente si allenano vicendevolmente" style="whiteSpace=wrap;html=1;dashed=1;dashPattern=8 8;" parent="xkZyKJ5uq6sU9dAtWqVg-1" vertex="1">
          <mxGeometry x="1290" y="1629" width="260" height="42.5" as="geometry" />
        </mxCell>
        <mxCell id="AJG2M9FdjN34FgShdrve-10" value="nome&lt;div&gt;armata&lt;/div&gt;" style="ellipse;whiteSpace=wrap;html=1;align=center;fontStyle=4;" parent="xkZyKJ5uq6sU9dAtWqVg-1" vertex="1">
          <mxGeometry x="1130" y="320" width="70" height="30" as="geometry" />
        </mxCell>
        <mxCell id="AJG2M9FdjN34FgShdrve-11" value="" style="endArrow=none;html=1;rounded=0;entryX=0;entryY=0;entryDx=0;entryDy=0;exitX=1;exitY=0.75;exitDx=0;exitDy=0;" parent="xkZyKJ5uq6sU9dAtWqVg-1" source="5RRhg4thibyP128AycnL-36" target="AJG2M9FdjN34FgShdrve-10" edge="1">
          <mxGeometry relative="1" as="geometry">
            <mxPoint x="1165" y="474" as="sourcePoint" />
            <mxPoint x="1060" y="494" as="targetPoint" />
          </mxGeometry>
        </mxCell>
        <mxCell id="AJG2M9FdjN34FgShdrve-13" value="Numero Flotta" style="ellipse;whiteSpace=wrap;html=1;align=center;fontStyle=4;" parent="xkZyKJ5uq6sU9dAtWqVg-1" vertex="1">
          <mxGeometry x="1490" y="1400" width="60" height="40" as="geometry" />
        </mxCell>
        <mxCell id="AJG2M9FdjN34FgShdrve-14" value="" style="endArrow=none;html=1;rounded=0;exitX=1;exitY=0.75;exitDx=0;exitDy=0;entryX=0;entryY=0;entryDx=0;entryDy=0;" parent="xkZyKJ5uq6sU9dAtWqVg-1" source="5RRhg4thibyP128AycnL-105" target="AJG2M9FdjN34FgShdrve-13" edge="1">
          <mxGeometry relative="1" as="geometry">
            <mxPoint x="1375" y="1349.25" as="sourcePoint" />
            <mxPoint x="1375" y="1310" as="targetPoint" />
          </mxGeometry>
        </mxCell>
        <mxCell id="AJG2M9FdjN34FgShdrve-18" value="" style="endArrow=none;html=1;rounded=0;exitX=1;exitY=0.25;exitDx=0;exitDy=0;entryX=0.014;entryY=0.64;entryDx=0;entryDy=0;entryPerimeter=0;" parent="xkZyKJ5uq6sU9dAtWqVg-1" source="5RRhg4thibyP128AycnL-105" edge="1">
          <mxGeometry relative="1" as="geometry">
            <mxPoint x="1485" y="1199" as="sourcePoint" />
            <mxPoint x="1495.8400000000001" y="1332.6000000000001" as="targetPoint" />
          </mxGeometry>
        </mxCell>
        <mxCell id="AJG2M9FdjN34FgShdrve-31" value="parte da" style="shape=rhombus;perimeter=rhombusPerimeter;whiteSpace=wrap;html=1;align=center;" parent="xkZyKJ5uq6sU9dAtWqVg-1" vertex="1">
          <mxGeometry x="740" y="868" width="80" height="60" as="geometry" />
        </mxCell>
        <mxCell id="RKXKa0fFr_hQ-l0K3k0U-0" value="" style="endArrow=none;html=1;rounded=0;entryX=0.5;entryY=0;entryDx=0;entryDy=0;exitX=0.5;exitY=1;exitDx=0;exitDy=0;" parent="xkZyKJ5uq6sU9dAtWqVg-1" target="AJG2M9FdjN34FgShdrve-31" edge="1">
          <mxGeometry relative="1" as="geometry">
            <mxPoint x="800" y="640" as="sourcePoint" />
            <mxPoint x="810" y="850" as="targetPoint" />
            <Array as="points">
              <mxPoint x="800" y="730" />
              <mxPoint x="780" y="730" />
            </Array>
          </mxGeometry>
        </mxCell>
        <mxCell id="RKXKa0fFr_hQ-l0K3k0U-1" value="1" style="edgeLabel;html=1;align=center;verticalAlign=middle;resizable=0;points=[];" parent="RKXKa0fFr_hQ-l0K3k0U-0" vertex="1" connectable="0">
          <mxGeometry x="-0.7079" y="6" relative="1" as="geometry">
            <mxPoint x="-12" y="263" as="offset" />
          </mxGeometry>
        </mxCell>
        <mxCell id="RKXKa0fFr_hQ-l0K3k0U-2" value="" style="endArrow=none;html=1;rounded=0;entryX=0.5;entryY=0;entryDx=0;entryDy=0;exitX=0;exitY=0.5;exitDx=0;exitDy=0;" parent="xkZyKJ5uq6sU9dAtWqVg-1" source="5RRhg4thibyP128AycnL-42" target="RKXKa0fFr_hQ-l0K3k0U-16" edge="1">
          <mxGeometry relative="1" as="geometry">
            <mxPoint x="750" y="1100" as="sourcePoint" />
            <mxPoint x="725" y="1150" as="targetPoint" />
            <Array as="points">
              <mxPoint x="725" y="1100" />
            </Array>
          </mxGeometry>
        </mxCell>
        <mxCell id="RKXKa0fFr_hQ-l0K3k0U-4" value="" style="endArrow=none;html=1;rounded=0;entryX=1;entryY=0.5;entryDx=0;entryDy=0;exitX=0;exitY=0.5;exitDx=0;exitDy=0;shape=link;" parent="xkZyKJ5uq6sU9dAtWqVg-1" source="RKXKa0fFr_hQ-l0K3k0U-16" target="RKXKa0fFr_hQ-l0K3k0U-15" edge="1">
          <mxGeometry relative="1" as="geometry">
            <mxPoint x="680" y="1180" as="sourcePoint" />
            <mxPoint x="640" y="1180" as="targetPoint" />
            <Array as="points" />
          </mxGeometry>
        </mxCell>
        <mxCell id="RKXKa0fFr_hQ-l0K3k0U-6" value="" style="endArrow=none;html=1;rounded=0;entryX=0.5;entryY=0;entryDx=0;entryDy=0;shape=link;" parent="xkZyKJ5uq6sU9dAtWqVg-1" target="RKXKa0fFr_hQ-l0K3k0U-15" edge="1">
          <mxGeometry relative="1" as="geometry">
            <mxPoint x="780" y="928" as="sourcePoint" />
            <mxPoint x="590" y="1160" as="targetPoint" />
            <Array as="points">
              <mxPoint x="780" y="1060" />
              <mxPoint x="590" y="1060" />
            </Array>
          </mxGeometry>
        </mxCell>
        <mxCell id="RKXKa0fFr_hQ-l0K3k0U-7" value="1" style="resizable=0;html=1;whiteSpace=wrap;align=left;verticalAlign=bottom;" parent="RKXKa0fFr_hQ-l0K3k0U-6" connectable="0" vertex="1">
          <mxGeometry x="-1" relative="1" as="geometry">
            <mxPoint x="-70" y="210" as="offset" />
          </mxGeometry>
        </mxCell>
        <mxCell id="RKXKa0fFr_hQ-l0K3k0U-15" value="Viaggio" style="shape=ext;margin=3;double=1;whiteSpace=wrap;html=1;align=center;" parent="xkZyKJ5uq6sU9dAtWqVg-1" vertex="1">
          <mxGeometry x="540" y="1160" width="100" height="40" as="geometry" />
        </mxCell>
        <mxCell id="RKXKa0fFr_hQ-l0K3k0U-16" value="effettua" style="shape=rhombus;double=1;perimeter=rhombusPerimeter;whiteSpace=wrap;html=1;align=center;" parent="xkZyKJ5uq6sU9dAtWqVg-1" vertex="1">
          <mxGeometry x="680" y="1150" width="90" height="60" as="geometry" />
        </mxCell>
        <mxCell id="RKXKa0fFr_hQ-l0K3k0U-17" value="&lt;u&gt;Data Inizio&lt;/u&gt;" style="ellipse;whiteSpace=wrap;html=1;align=center;" parent="xkZyKJ5uq6sU9dAtWqVg-1" vertex="1">
          <mxGeometry x="500" y="1214.5" width="50" height="30" as="geometry" />
        </mxCell>
        <mxCell id="RKXKa0fFr_hQ-l0K3k0U-18" value="Data fine" style="ellipse;whiteSpace=wrap;html=1;align=center;" parent="xkZyKJ5uq6sU9dAtWqVg-1" vertex="1">
          <mxGeometry x="530" y="1250" width="50" height="30" as="geometry" />
        </mxCell>
        <mxCell id="RKXKa0fFr_hQ-l0K3k0U-19" value="" style="endArrow=none;html=1;rounded=0;exitX=0.5;exitY=0;exitDx=0;exitDy=0;entryX=0;entryY=1;entryDx=0;entryDy=0;" parent="xkZyKJ5uq6sU9dAtWqVg-1" source="RKXKa0fFr_hQ-l0K3k0U-17" target="RKXKa0fFr_hQ-l0K3k0U-15" edge="1">
          <mxGeometry relative="1" as="geometry">
            <mxPoint x="610" y="1287.25" as="sourcePoint" />
            <mxPoint x="770" y="1287.25" as="targetPoint" />
          </mxGeometry>
        </mxCell>
        <mxCell id="RKXKa0fFr_hQ-l0K3k0U-20" value="" style="endArrow=none;html=1;rounded=0;exitX=0.5;exitY=0;exitDx=0;exitDy=0;entryX=0.25;entryY=1;entryDx=0;entryDy=0;" parent="xkZyKJ5uq6sU9dAtWqVg-1" source="RKXKa0fFr_hQ-l0K3k0U-18" target="RKXKa0fFr_hQ-l0K3k0U-15" edge="1">
          <mxGeometry relative="1" as="geometry">
            <mxPoint x="710" y="1288" as="sourcePoint" />
            <mxPoint x="715" y="1260" as="targetPoint" />
          </mxGeometry>
        </mxCell>
        <mxCell id="RKXKa0fFr_hQ-l0K3k0U-23" value="stanziamento" style="shape=ext;margin=3;double=1;whiteSpace=wrap;html=1;align=center;" parent="xkZyKJ5uq6sU9dAtWqVg-1" vertex="1">
          <mxGeometry x="1137.25" y="878" width="100" height="40" as="geometry" />
        </mxCell>
        <mxCell id="RKXKa0fFr_hQ-l0K3k0U-28" value="" style="endArrow=none;html=1;rounded=0;exitX=1;exitY=0.5;exitDx=0;exitDy=0;entryX=0;entryY=0.5;entryDx=0;entryDy=0;shape=link;" parent="xkZyKJ5uq6sU9dAtWqVg-1" source="RKXKa0fFr_hQ-l0K3k0U-52" target="RKXKa0fFr_hQ-l0K3k0U-23" edge="1">
          <mxGeometry relative="1" as="geometry">
            <mxPoint x="970" y="908" as="sourcePoint" />
            <mxPoint x="1255" y="1000" as="targetPoint" />
          </mxGeometry>
        </mxCell>
        <mxCell id="RKXKa0fFr_hQ-l0K3k0U-29" value="N" style="resizable=0;html=1;whiteSpace=wrap;align=right;verticalAlign=bottom;" parent="RKXKa0fFr_hQ-l0K3k0U-28" connectable="0" vertex="1">
          <mxGeometry x="1" relative="1" as="geometry">
            <mxPoint x="-21" y="-6" as="offset" />
          </mxGeometry>
        </mxCell>
        <mxCell id="RKXKa0fFr_hQ-l0K3k0U-32" value="" style="endArrow=none;html=1;rounded=0;exitX=1;exitY=0.5;exitDx=0;exitDy=0;entryX=0;entryY=0.5;entryDx=0;entryDy=0;shape=link;" parent="xkZyKJ5uq6sU9dAtWqVg-1" source="RKXKa0fFr_hQ-l0K3k0U-23" edge="1">
          <mxGeometry relative="1" as="geometry">
            <mxPoint x="1247.25" y="970" as="sourcePoint" />
            <mxPoint x="1262.25" y="898" as="targetPoint" />
          </mxGeometry>
        </mxCell>
        <mxCell id="RKXKa0fFr_hQ-l0K3k0U-33" value="N" style="resizable=0;html=1;whiteSpace=wrap;align=right;verticalAlign=bottom;" parent="RKXKa0fFr_hQ-l0K3k0U-32" connectable="0" vertex="1">
          <mxGeometry x="1" relative="1" as="geometry">
            <mxPoint x="-5" y="-2" as="offset" />
          </mxGeometry>
        </mxCell>
        <mxCell id="RKXKa0fFr_hQ-l0K3k0U-34" value="" style="endArrow=none;html=1;rounded=0;exitX=1;exitY=0.5;exitDx=0;exitDy=0;entryX=0;entryY=0.5;entryDx=0;entryDy=0;" parent="xkZyKJ5uq6sU9dAtWqVg-1" target="5RRhg4thibyP128AycnL-35" edge="1">
          <mxGeometry relative="1" as="geometry">
            <mxPoint x="1342.25" y="898" as="sourcePoint" />
            <mxPoint x="1322.25" y="970" as="targetPoint" />
          </mxGeometry>
        </mxCell>
        <mxCell id="RKXKa0fFr_hQ-l0K3k0U-35" value="1" style="resizable=0;html=1;whiteSpace=wrap;align=right;verticalAlign=bottom;" parent="RKXKa0fFr_hQ-l0K3k0U-34" connectable="0" vertex="1">
          <mxGeometry x="1" relative="1" as="geometry">
            <mxPoint x="-14" as="offset" />
          </mxGeometry>
        </mxCell>
        <mxCell id="RKXKa0fFr_hQ-l0K3k0U-38" value="Data fine" style="ellipse;whiteSpace=wrap;html=1;align=center;" parent="xkZyKJ5uq6sU9dAtWqVg-1" vertex="1">
          <mxGeometry x="1207.25" y="940" width="62.75" height="30" as="geometry" />
        </mxCell>
        <mxCell id="RKXKa0fFr_hQ-l0K3k0U-39" value="" style="endArrow=none;html=1;rounded=0;exitX=0.5;exitY=0;exitDx=0;exitDy=0;" parent="xkZyKJ5uq6sU9dAtWqVg-1" edge="1">
          <mxGeometry relative="1" as="geometry">
            <mxPoint x="1153.125" y="940" as="sourcePoint" />
            <mxPoint x="1167.25" y="920" as="targetPoint" />
          </mxGeometry>
        </mxCell>
        <mxCell id="RKXKa0fFr_hQ-l0K3k0U-40" value="" style="endArrow=none;html=1;rounded=0;exitX=0.5;exitY=0;exitDx=0;exitDy=0;entryX=0.75;entryY=1;entryDx=0;entryDy=0;" parent="xkZyKJ5uq6sU9dAtWqVg-1" source="RKXKa0fFr_hQ-l0K3k0U-38" edge="1">
          <mxGeometry relative="1" as="geometry">
            <mxPoint x="1312.25" y="1006" as="sourcePoint" />
            <mxPoint x="1217.25" y="918" as="targetPoint" />
          </mxGeometry>
        </mxCell>
        <mxCell id="RKXKa0fFr_hQ-l0K3k0U-44" value="M" style="resizable=0;html=1;whiteSpace=wrap;align=left;verticalAlign=bottom;direction=south;" parent="xkZyKJ5uq6sU9dAtWqVg-1" connectable="0" vertex="1">
          <mxGeometry x="465" y="1175" as="geometry">
            <mxPoint x="-272" y="-182" as="offset" />
          </mxGeometry>
        </mxCell>
        <mxCell id="RKXKa0fFr_hQ-l0K3k0U-52" value="è difesa da" style="shape=rhombus;double=1;perimeter=rhombusPerimeter;whiteSpace=wrap;html=1;align=center;" parent="xkZyKJ5uq6sU9dAtWqVg-1" vertex="1">
          <mxGeometry x="998" y="868" width="80" height="60" as="geometry" />
        </mxCell>
        <mxCell id="SDKRW_U8eVPvxJMFkSfq-0" value="" style="endArrow=none;html=1;rounded=0;exitX=1;exitY=0.5;exitDx=0;exitDy=0;entryX=0;entryY=0.5;entryDx=0;entryDy=0;" parent="xkZyKJ5uq6sU9dAtWqVg-1" source="5RRhg4thibyP128AycnL-15" target="5RRhg4thibyP128AycnL-96" edge="1">
          <mxGeometry relative="1" as="geometry">
            <mxPoint x="280" y="1400" as="sourcePoint" />
            <mxPoint x="378" y="1614" as="targetPoint" />
            <Array as="points">
              <mxPoint x="240" y="1000" />
              <mxPoint x="240" y="1335" />
            </Array>
          </mxGeometry>
        </mxCell>
        <mxCell id="SDKRW_U8eVPvxJMFkSfq-1" value="viene trasportato attraverso" style="shape=rhombus;perimeter=rhombusPerimeter;whiteSpace=wrap;html=1;align=center;" parent="xkZyKJ5uq6sU9dAtWqVg-1" vertex="1">
          <mxGeometry x="383" y="1144.5" width="85" height="70" as="geometry" />
        </mxCell>
        <mxCell id="SDKRW_U8eVPvxJMFkSfq-2" value="" style="endArrow=none;html=1;rounded=0;entryX=1;entryY=0.5;entryDx=0;entryDy=0;exitX=0;exitY=0.5;exitDx=0;exitDy=0;" parent="xkZyKJ5uq6sU9dAtWqVg-1" source="RKXKa0fFr_hQ-l0K3k0U-15" target="SDKRW_U8eVPvxJMFkSfq-1" edge="1">
          <mxGeometry relative="1" as="geometry">
            <mxPoint x="570" y="1629" as="sourcePoint" />
            <mxPoint x="570" y="1520" as="targetPoint" />
          </mxGeometry>
        </mxCell>
        <mxCell id="SDKRW_U8eVPvxJMFkSfq-3" value="" style="endArrow=none;html=1;rounded=0;entryX=0.5;entryY=1;entryDx=0;entryDy=0;exitX=0.5;exitY=0;exitDx=0;exitDy=0;" parent="xkZyKJ5uq6sU9dAtWqVg-1" source="SDKRW_U8eVPvxJMFkSfq-1" edge="1">
          <mxGeometry relative="1" as="geometry">
            <mxPoint x="535" y="1440" as="sourcePoint" />
            <mxPoint x="425" y="1110" as="targetPoint" />
          </mxGeometry>
        </mxCell>
        <mxCell id="SDKRW_U8eVPvxJMFkSfq-4" value="" style="endArrow=classic;html=1;rounded=0;entryX=1;entryY=0.5;entryDx=0;entryDy=0;exitX=0;exitY=0.5;exitDx=0;exitDy=0;" parent="xkZyKJ5uq6sU9dAtWqVg-1" source="5RRhg4thibyP128AycnL-24" target="5RRhg4thibyP128AycnL-30" edge="1">
          <mxGeometry width="50" height="50" relative="1" as="geometry">
            <mxPoint x="240" y="1150" as="sourcePoint" />
            <mxPoint x="290" y="1100" as="targetPoint" />
          </mxGeometry>
        </mxCell>
        <mxCell id="SDKRW_U8eVPvxJMFkSfq-5" value="" style="endArrow=classic;html=1;rounded=0;entryX=1;entryY=0.5;entryDx=0;entryDy=0;exitX=0;exitY=0.5;exitDx=0;exitDy=0;" parent="xkZyKJ5uq6sU9dAtWqVg-1" source="5RRhg4thibyP128AycnL-24" target="5RRhg4thibyP128AycnL-28" edge="1">
          <mxGeometry width="50" height="50" relative="1" as="geometry">
            <mxPoint x="100" y="1070" as="sourcePoint" />
            <mxPoint x="20" y="1070" as="targetPoint" />
            <Array as="points">
              <mxPoint x="-20" y="1000" />
              <mxPoint x="-20" y="1068" />
            </Array>
          </mxGeometry>
        </mxCell>
        <mxCell id="SDKRW_U8eVPvxJMFkSfq-6" value="" style="endArrow=classic;html=1;rounded=0;entryX=1;entryY=0.5;entryDx=0;entryDy=0;exitX=0;exitY=0.5;exitDx=0;exitDy=0;" parent="xkZyKJ5uq6sU9dAtWqVg-1" source="5RRhg4thibyP128AycnL-24" target="5RRhg4thibyP128AycnL-26" edge="1">
          <mxGeometry width="50" height="50" relative="1" as="geometry">
            <mxPoint x="30" y="912" as="sourcePoint" />
            <mxPoint x="-50" y="980" as="targetPoint" />
            <Array as="points">
              <mxPoint x="-20" y="1000" />
              <mxPoint x="-20" y="930" />
            </Array>
          </mxGeometry>
        </mxCell>
        <mxCell id="SDKRW_U8eVPvxJMFkSfq-7" value="" style="endArrow=none;html=1;rounded=0;exitX=0.153;exitY=1.078;exitDx=0;exitDy=0;entryX=0.5;entryY=0;entryDx=0;entryDy=0;exitPerimeter=0;" parent="xkZyKJ5uq6sU9dAtWqVg-1" source="5RRhg4thibyP128AycnL-15" target="5RRhg4thibyP128AycnL-164" edge="1">
          <mxGeometry relative="1" as="geometry">
            <mxPoint x="80" y="1180" as="sourcePoint" />
            <mxPoint x="80" y="1312" as="targetPoint" />
          </mxGeometry>
        </mxCell>
        <mxCell id="SDKRW_U8eVPvxJMFkSfq-9" value="N" style="resizable=0;html=1;whiteSpace=wrap;align=left;verticalAlign=bottom;" parent="xkZyKJ5uq6sU9dAtWqVg-1" connectable="0" vertex="1">
          <mxGeometry x="1425" y="1210" as="geometry" />
        </mxCell>
        <mxCell id="SDKRW_U8eVPvxJMFkSfq-10" value="è presidiato" style="shape=rhombus;perimeter=rhombusPerimeter;whiteSpace=wrap;html=1;align=center;" parent="xkZyKJ5uq6sU9dAtWqVg-1" vertex="1">
          <mxGeometry x="1250" y="1121" width="80" height="60" as="geometry" />
        </mxCell>
        <mxCell id="SDKRW_U8eVPvxJMFkSfq-12" value="N occupanti" style="ellipse;whiteSpace=wrap;html=1;align=center;" parent="xkZyKJ5uq6sU9dAtWqVg-1" vertex="1">
          <mxGeometry x="1267.25" y="815" width="70" height="40" as="geometry" />
        </mxCell>
        <mxCell id="SDKRW_U8eVPvxJMFkSfq-13" value="" style="endArrow=none;html=1;rounded=0;exitX=0.5;exitY=0;exitDx=0;exitDy=0;entryX=0.5;entryY=1;entryDx=0;entryDy=0;" parent="xkZyKJ5uq6sU9dAtWqVg-1" source="skqzL_gy3SJHRYQdTLHT-8" target="SDKRW_U8eVPvxJMFkSfq-12" edge="1">
          <mxGeometry relative="1" as="geometry">
            <mxPoint x="1302.25" y="868" as="sourcePoint" />
            <mxPoint x="1247.25" y="1020" as="targetPoint" />
          </mxGeometry>
        </mxCell>
        <mxCell id="SDKRW_U8eVPvxJMFkSfq-14" value="" style="endArrow=none;html=1;rounded=0;exitX=0.5;exitY=1;exitDx=0;exitDy=0;entryX=0;entryY=0.25;entryDx=0;entryDy=0;" parent="xkZyKJ5uq6sU9dAtWqVg-1" source="SDKRW_U8eVPvxJMFkSfq-10" target="5RRhg4thibyP128AycnL-105" edge="1">
          <mxGeometry relative="1" as="geometry">
            <mxPoint x="1300" y="1210" as="sourcePoint" />
            <mxPoint x="1300" y="1427" as="targetPoint" />
            <Array as="points">
              <mxPoint x="1290" y="1360" />
            </Array>
          </mxGeometry>
        </mxCell>
        <mxCell id="SDKRW_U8eVPvxJMFkSfq-16" value="" style="endArrow=none;html=1;rounded=0;exitX=0.561;exitY=0.998;exitDx=0;exitDy=0;entryX=0.5;entryY=0;entryDx=0;entryDy=0;exitPerimeter=0;" parent="xkZyKJ5uq6sU9dAtWqVg-1" source="RKXKa0fFr_hQ-l0K3k0U-23" target="SDKRW_U8eVPvxJMFkSfq-10" edge="1">
          <mxGeometry relative="1" as="geometry">
            <mxPoint x="1200" y="1210" as="sourcePoint" />
            <mxPoint x="1275" y="1388" as="targetPoint" />
            <Array as="points">
              <mxPoint x="1193" y="1050" />
              <mxPoint x="1290" y="1050" />
            </Array>
          </mxGeometry>
        </mxCell>
        <mxCell id="SDKRW_U8eVPvxJMFkSfq-18" value="N" style="resizable=0;html=1;whiteSpace=wrap;align=left;verticalAlign=bottom;" parent="xkZyKJ5uq6sU9dAtWqVg-1" connectable="0" vertex="1">
          <mxGeometry x="1310" y="1210" as="geometry">
            <mxPoint x="-10" y="18" as="offset" />
          </mxGeometry>
        </mxCell>
        <mxCell id="SDKRW_U8eVPvxJMFkSfq-19" value="M" style="resizable=0;html=1;whiteSpace=wrap;align=left;verticalAlign=bottom;" parent="xkZyKJ5uq6sU9dAtWqVg-1" connectable="0" vertex="1">
          <mxGeometry x="1226" y="1046" as="geometry" />
        </mxCell>
        <mxCell id="SDKRW_U8eVPvxJMFkSfq-21" value="N" style="resizable=0;html=1;whiteSpace=wrap;align=left;verticalAlign=bottom;" parent="xkZyKJ5uq6sU9dAtWqVg-1" connectable="0" vertex="1">
          <mxGeometry x="656" y="1178.5" as="geometry" />
        </mxCell>
        <mxCell id="SDKRW_U8eVPvxJMFkSfq-23" value="M" style="resizable=0;html=1;whiteSpace=wrap;align=left;verticalAlign=bottom;direction=north;" parent="xkZyKJ5uq6sU9dAtWqVg-1" connectable="0" vertex="1">
          <mxGeometry x="510" y="1171" as="geometry">
            <mxPoint x="-6" y="8" as="offset" />
          </mxGeometry>
        </mxCell>
        <mxCell id="SDKRW_U8eVPvxJMFkSfq-24" value="Quantità cargo" style="ellipse;whiteSpace=wrap;html=1;align=center;" parent="xkZyKJ5uq6sU9dAtWqVg-1" vertex="1">
          <mxGeometry x="560" y="1389.25" width="60" height="40" as="geometry" />
        </mxCell>
        <mxCell id="SDKRW_U8eVPvxJMFkSfq-25" value="" style="endArrow=none;html=1;rounded=0;exitX=0.5;exitY=1;exitDx=0;exitDy=0;entryX=0.5;entryY=0;entryDx=0;entryDy=0;" parent="xkZyKJ5uq6sU9dAtWqVg-1" source="5RRhg4thibyP128AycnL-96" target="SDKRW_U8eVPvxJMFkSfq-24" edge="1">
          <mxGeometry relative="1" as="geometry">
            <mxPoint x="890" y="1460" as="sourcePoint" />
            <mxPoint x="870" y="1430" as="targetPoint" />
          </mxGeometry>
        </mxCell>
        <mxCell id="SDKRW_U8eVPvxJMFkSfq-26" value="Quantità armi" style="ellipse;whiteSpace=wrap;html=1;align=center;" parent="xkZyKJ5uq6sU9dAtWqVg-1" vertex="1">
          <mxGeometry x="395.5" y="1230" width="60" height="40" as="geometry" />
        </mxCell>
        <mxCell id="SDKRW_U8eVPvxJMFkSfq-27" value="" style="endArrow=none;html=1;rounded=0;exitX=0.5;exitY=1;exitDx=0;exitDy=0;entryX=0.5;entryY=0;entryDx=0;entryDy=0;" parent="xkZyKJ5uq6sU9dAtWqVg-1" source="SDKRW_U8eVPvxJMFkSfq-1" target="SDKRW_U8eVPvxJMFkSfq-26" edge="1">
          <mxGeometry relative="1" as="geometry">
            <mxPoint x="450" y="1240.75" as="sourcePoint" />
            <mxPoint x="730" y="1300.75" as="targetPoint" />
          </mxGeometry>
        </mxCell>
        <mxCell id="SDKRW_U8eVPvxJMFkSfq-32" value="" style="endArrow=none;html=1;rounded=0;exitX=0.5;exitY=1;exitDx=0;exitDy=0;entryX=0.5;entryY=0;entryDx=0;entryDy=0;" parent="xkZyKJ5uq6sU9dAtWqVg-1" edge="1">
          <mxGeometry relative="1" as="geometry">
            <mxPoint x="836" y="400" as="sourcePoint" />
            <mxPoint x="836" y="420" as="targetPoint" />
          </mxGeometry>
        </mxCell>
        <mxCell id="SDKRW_U8eVPvxJMFkSfq-34" value="1" style="resizable=0;html=1;whiteSpace=wrap;align=right;verticalAlign=bottom;" parent="xkZyKJ5uq6sU9dAtWqVg-1" connectable="0" vertex="1">
          <mxGeometry x="975.25" y="548" as="geometry">
            <mxPoint x="-120" y="-199" as="offset" />
          </mxGeometry>
        </mxCell>
        <mxCell id="SDKRW_U8eVPvxJMFkSfq-42" value="" style="endArrow=none;html=1;rounded=0;exitX=0.5;exitY=0;exitDx=0;exitDy=0;entryX=0.5;entryY=1;entryDx=0;entryDy=0;" parent="xkZyKJ5uq6sU9dAtWqVg-1" source="SDKRW_U8eVPvxJMFkSfq-64" target="5RRhg4thibyP128AycnL-36" edge="1">
          <mxGeometry relative="1" as="geometry">
            <mxPoint x="1060" y="402" as="sourcePoint" />
            <mxPoint x="1260" y="534" as="targetPoint" />
          </mxGeometry>
        </mxCell>
        <mxCell id="SDKRW_U8eVPvxJMFkSfq-43" value="N" style="resizable=0;html=1;whiteSpace=wrap;align=right;verticalAlign=bottom;" parent="xkZyKJ5uq6sU9dAtWqVg-1" connectable="0" vertex="1">
          <mxGeometry x="1078" y="424" as="geometry">
            <mxPoint x="-1" y="-73" as="offset" />
          </mxGeometry>
        </mxCell>
        <mxCell id="SDKRW_U8eVPvxJMFkSfq-50" value="&lt;span style=&quot;border-bottom: 1px dotted;&quot;&gt;Anno di Conquista&lt;/span&gt;" style="ellipse;whiteSpace=wrap;html=1;align=center;" parent="xkZyKJ5uq6sU9dAtWqVg-1" vertex="1">
          <mxGeometry x="878" y="630" width="100" height="40" as="geometry" />
        </mxCell>
        <mxCell id="SDKRW_U8eVPvxJMFkSfq-54" value="" style="endArrow=none;html=1;rounded=0;exitX=0.494;exitY=1.074;exitDx=0;exitDy=0;entryX=0.5;entryY=0;entryDx=0;entryDy=0;exitPerimeter=0;" parent="xkZyKJ5uq6sU9dAtWqVg-1" source="5RRhg4thibyP128AycnL-2" edge="1">
          <mxGeometry relative="1" as="geometry">
            <mxPoint x="960" y="390" as="sourcePoint" />
            <mxPoint x="836" y="350" as="targetPoint" />
          </mxGeometry>
        </mxCell>
        <mxCell id="SDKRW_U8eVPvxJMFkSfq-55" value="" style="endArrow=none;html=1;rounded=0;exitX=0.5;exitY=1.073;exitDx=0;exitDy=0;entryX=0.5;entryY=0;entryDx=0;entryDy=0;exitPerimeter=0;" parent="xkZyKJ5uq6sU9dAtWqVg-1" edge="1">
          <mxGeometry relative="1" as="geometry">
            <mxPoint x="836" y="462.9200000000001" as="sourcePoint" />
            <mxPoint x="836" y="485" as="targetPoint" />
          </mxGeometry>
        </mxCell>
        <mxCell id="SDKRW_U8eVPvxJMFkSfq-56" value="" style="endArrow=none;html=1;rounded=0;exitX=0.5;exitY=1;exitDx=0;exitDy=0;entryX=0.5;entryY=0;entryDx=0;entryDy=0;shape=link;" parent="xkZyKJ5uq6sU9dAtWqVg-1" edge="1">
          <mxGeometry relative="1" as="geometry">
            <mxPoint x="836" y="535" as="sourcePoint" />
            <mxPoint x="800" y="600" as="targetPoint" />
            <Array as="points">
              <mxPoint x="836" y="570" />
              <mxPoint x="800" y="570" />
            </Array>
          </mxGeometry>
        </mxCell>
        <mxCell id="SDKRW_U8eVPvxJMFkSfq-57" value="Occupazione" style="shape=ext;margin=3;double=1;whiteSpace=wrap;html=1;align=center;" parent="xkZyKJ5uq6sU9dAtWqVg-1" vertex="1">
          <mxGeometry x="750" y="600" width="100" height="40" as="geometry" />
        </mxCell>
        <mxCell id="SDKRW_U8eVPvxJMFkSfq-60" value="N" style="resizable=0;html=1;whiteSpace=wrap;align=right;verticalAlign=bottom;" parent="xkZyKJ5uq6sU9dAtWqVg-1" connectable="0" vertex="1">
          <mxGeometry x="975" y="616" as="geometry">
            <mxPoint x="-120" y="-199" as="offset" />
          </mxGeometry>
        </mxCell>
        <mxCell id="SDKRW_U8eVPvxJMFkSfq-61" value="1" style="resizable=0;html=1;whiteSpace=wrap;align=right;verticalAlign=bottom;" parent="xkZyKJ5uq6sU9dAtWqVg-1" connectable="0" vertex="1">
          <mxGeometry x="975.25" y="770" as="geometry">
            <mxPoint x="-120" y="-199" as="offset" />
          </mxGeometry>
        </mxCell>
        <mxCell id="SDKRW_U8eVPvxJMFkSfq-62" value="1" style="resizable=0;html=1;whiteSpace=wrap;align=right;verticalAlign=bottom;" parent="xkZyKJ5uq6sU9dAtWqVg-1" connectable="0" vertex="1">
          <mxGeometry x="973.25" y="684" as="geometry">
            <mxPoint x="-120" y="-199" as="offset" />
          </mxGeometry>
        </mxCell>
        <mxCell id="SDKRW_U8eVPvxJMFkSfq-63" value="combatte" style="shape=rhombus;perimeter=rhombusPerimeter;whiteSpace=wrap;html=1;align=center;" parent="xkZyKJ5uq6sU9dAtWqVg-1" vertex="1">
          <mxGeometry x="1019.25" y="485" width="80.75" height="50" as="geometry" />
        </mxCell>
        <mxCell id="SDKRW_U8eVPvxJMFkSfq-64" value="combatte" style="shape=rhombus;perimeter=rhombusPerimeter;whiteSpace=wrap;html=1;align=center;" parent="xkZyKJ5uq6sU9dAtWqVg-1" vertex="1">
          <mxGeometry x="1020" y="356" width="80" height="50" as="geometry" />
        </mxCell>
        <mxCell id="SDKRW_U8eVPvxJMFkSfq-66" value="" style="endArrow=none;html=1;rounded=0;entryX=1;entryY=0.25;entryDx=0;entryDy=0;exitX=0.5;exitY=1;exitDx=0;exitDy=0;" parent="xkZyKJ5uq6sU9dAtWqVg-1" source="SDKRW_U8eVPvxJMFkSfq-64" edge="1">
          <mxGeometry relative="1" as="geometry">
            <mxPoint x="1130" y="410" as="sourcePoint" />
            <mxPoint x="886" y="430" as="targetPoint" />
            <Array as="points">
              <mxPoint x="1060" y="430" />
            </Array>
          </mxGeometry>
        </mxCell>
        <mxCell id="SDKRW_U8eVPvxJMFkSfq-67" value="" style="endArrow=none;html=1;rounded=0;entryX=1;entryY=0.75;entryDx=0;entryDy=0;exitX=0.5;exitY=0;exitDx=0;exitDy=0;" parent="xkZyKJ5uq6sU9dAtWqVg-1" source="SDKRW_U8eVPvxJMFkSfq-63" edge="1">
          <mxGeometry relative="1" as="geometry">
            <mxPoint x="1080" y="436" as="sourcePoint" />
            <mxPoint x="886" y="450" as="targetPoint" />
            <Array as="points">
              <mxPoint x="1060" y="450" />
            </Array>
          </mxGeometry>
        </mxCell>
        <mxCell id="SDKRW_U8eVPvxJMFkSfq-68" value="" style="endArrow=none;html=1;rounded=0;exitX=0.5;exitY=1;exitDx=0;exitDy=0;entryX=0.25;entryY=0;entryDx=0;entryDy=0;" parent="xkZyKJ5uq6sU9dAtWqVg-1" source="SDKRW_U8eVPvxJMFkSfq-63" target="5RRhg4thibyP128AycnL-35" edge="1">
          <mxGeometry relative="1" as="geometry">
            <mxPoint x="1180" y="730" as="sourcePoint" />
            <mxPoint x="1270" y="880" as="targetPoint" />
            <Array as="points">
              <mxPoint x="1060" y="690" />
              <mxPoint x="1390" y="690" />
            </Array>
          </mxGeometry>
        </mxCell>
        <mxCell id="SDKRW_U8eVPvxJMFkSfq-70" value="N" style="resizable=0;html=1;whiteSpace=wrap;align=right;verticalAlign=bottom;" parent="xkZyKJ5uq6sU9dAtWqVg-1" connectable="0" vertex="1">
          <mxGeometry x="1297.25" y="750" as="geometry">
            <mxPoint x="-1" y="-73" as="offset" />
          </mxGeometry>
        </mxCell>
        <mxCell id="SDKRW_U8eVPvxJMFkSfq-71" value="M" style="resizable=0;html=1;whiteSpace=wrap;align=right;verticalAlign=bottom;" parent="xkZyKJ5uq6sU9dAtWqVg-1" connectable="0" vertex="1">
          <mxGeometry x="1080" y="630" as="geometry">
            <mxPoint x="-120" y="-199" as="offset" />
          </mxGeometry>
        </mxCell>
        <mxCell id="SDKRW_U8eVPvxJMFkSfq-72" value="M" style="resizable=0;html=1;whiteSpace=wrap;align=right;verticalAlign=bottom;" parent="xkZyKJ5uq6sU9dAtWqVg-1" connectable="0" vertex="1">
          <mxGeometry x="1080" y="670" as="geometry">
            <mxPoint x="-120" y="-199" as="offset" />
          </mxGeometry>
        </mxCell>
        <mxCell id="SDKRW_U8eVPvxJMFkSfq-73" value="N Perdite" style="ellipse;whiteSpace=wrap;html=1;align=center;" parent="xkZyKJ5uq6sU9dAtWqVg-1" vertex="1">
          <mxGeometry x="1130" y="490" width="70" height="40" as="geometry" />
        </mxCell>
        <mxCell id="SDKRW_U8eVPvxJMFkSfq-74" value="" style="endArrow=none;html=1;rounded=0;exitX=1;exitY=0.5;exitDx=0;exitDy=0;entryX=0;entryY=0.5;entryDx=0;entryDy=0;" parent="xkZyKJ5uq6sU9dAtWqVg-1" source="SDKRW_U8eVPvxJMFkSfq-63" target="SDKRW_U8eVPvxJMFkSfq-73" edge="1">
          <mxGeometry relative="1" as="geometry">
            <mxPoint x="1230" y="603" as="sourcePoint" />
            <mxPoint x="1230" y="590" as="targetPoint" />
          </mxGeometry>
        </mxCell>
        <mxCell id="SDKRW_U8eVPvxJMFkSfq-77" value="" style="endArrow=none;html=1;rounded=0;exitX=1;exitY=0.5;exitDx=0;exitDy=0;entryX=0.023;entryY=0.355;entryDx=0;entryDy=0;entryPerimeter=0;" parent="xkZyKJ5uq6sU9dAtWqVg-1" source="oYBEdMetGpaptJd9c9sY-14" edge="1">
          <mxGeometry relative="1" as="geometry">
            <mxPoint x="752.9248729703431" y="425.4561758993666" as="sourcePoint" />
            <mxPoint x="788.3000000000002" y="434.19999999999993" as="targetPoint" />
          </mxGeometry>
        </mxCell>
        <mxCell id="oYBEdMetGpaptJd9c9sY-1" value="1" style="resizable=0;html=1;whiteSpace=wrap;align=left;verticalAlign=bottom;direction=west;" parent="xkZyKJ5uq6sU9dAtWqVg-1" connectable="0" vertex="1">
          <mxGeometry x="700" y="849" as="geometry" />
        </mxCell>
        <mxCell id="oYBEdMetGpaptJd9c9sY-2" value="1" style="resizable=0;html=1;whiteSpace=wrap;align=left;verticalAlign=bottom;direction=west;" parent="xkZyKJ5uq6sU9dAtWqVg-1" connectable="0" vertex="1">
          <mxGeometry x="786" y="849" as="geometry" />
        </mxCell>
        <mxCell id="oYBEdMetGpaptJd9c9sY-3" value="1" style="resizable=0;html=1;whiteSpace=wrap;align=left;verticalAlign=bottom;direction=south;" parent="xkZyKJ5uq6sU9dAtWqVg-1" connectable="0" vertex="1">
          <mxGeometry x="965" y="890" as="geometry" />
        </mxCell>
        <mxCell id="oYBEdMetGpaptJd9c9sY-5" value="Effettivi" style="ellipse;whiteSpace=wrap;html=1;align=center;" parent="xkZyKJ5uq6sU9dAtWqVg-1" vertex="1">
          <mxGeometry x="1497.25" y="878" width="70" height="37" as="geometry" />
        </mxCell>
        <mxCell id="oYBEdMetGpaptJd9c9sY-6" value="" style="endArrow=none;html=1;rounded=0;exitX=0;exitY=0.5;exitDx=0;exitDy=0;entryX=1;entryY=0.5;entryDx=0;entryDy=0;" parent="xkZyKJ5uq6sU9dAtWqVg-1" source="oYBEdMetGpaptJd9c9sY-5" target="5RRhg4thibyP128AycnL-35" edge="1">
          <mxGeometry relative="1" as="geometry">
            <mxPoint x="1723.25" y="910" as="sourcePoint" />
            <mxPoint x="1687.25" y="930" as="targetPoint" />
          </mxGeometry>
        </mxCell>
        <mxCell id="oYBEdMetGpaptJd9c9sY-9" value="Guerra di Conquista" style="shape=ext;margin=3;double=1;whiteSpace=wrap;html=1;align=center;" parent="xkZyKJ5uq6sU9dAtWqVg-1" vertex="1">
          <mxGeometry x="786" y="420" width="100" height="40" as="geometry" />
        </mxCell>
        <mxCell id="oYBEdMetGpaptJd9c9sY-10" value="subisce" style="shape=rhombus;double=1;perimeter=rhombusPerimeter;whiteSpace=wrap;html=1;align=center;" parent="xkZyKJ5uq6sU9dAtWqVg-1" vertex="1">
          <mxGeometry x="796" y="350" width="80" height="50" as="geometry" />
        </mxCell>
        <mxCell id="oYBEdMetGpaptJd9c9sY-11" value="produce" style="shape=rhombus;double=1;perimeter=rhombusPerimeter;whiteSpace=wrap;html=1;align=center;" parent="xkZyKJ5uq6sU9dAtWqVg-1" vertex="1">
          <mxGeometry x="797.5" y="485" width="78.5" height="50" as="geometry" />
        </mxCell>
        <mxCell id="oYBEdMetGpaptJd9c9sY-14" value="&lt;span style=&quot;border-bottom: 1px dotted;&quot;&gt;Data Inizio&lt;/span&gt;" style="ellipse;whiteSpace=wrap;html=1;align=center;" parent="xkZyKJ5uq6sU9dAtWqVg-1" vertex="1">
          <mxGeometry x="706" y="380" width="50" height="50" as="geometry" />
        </mxCell>
        <mxCell id="oYBEdMetGpaptJd9c9sY-18" value="N pianeti" style="ellipse;whiteSpace=wrap;html=1;align=center;dashed=1;" parent="xkZyKJ5uq6sU9dAtWqVg-1" vertex="1">
          <mxGeometry x="926" y="70" width="70" height="40" as="geometry" />
        </mxCell>
        <mxCell id="oYBEdMetGpaptJd9c9sY-19" value="" style="endArrow=none;html=1;rounded=0;entryX=0;entryY=0.5;entryDx=0;entryDy=0;exitX=1;exitY=0.25;exitDx=0;exitDy=0;" parent="xkZyKJ5uq6sU9dAtWqVg-1" source="5RRhg4thibyP128AycnL-0" target="oYBEdMetGpaptJd9c9sY-18" edge="1">
          <mxGeometry relative="1" as="geometry">
            <mxPoint x="900" y="120" as="sourcePoint" />
            <mxPoint x="1026" y="190" as="targetPoint" />
          </mxGeometry>
        </mxCell>
        <mxCell id="oYBEdMetGpaptJd9c9sY-22" value="Coordinate stellari" style="ellipse;shape=doubleEllipse;margin=3;whiteSpace=wrap;html=1;align=center;" parent="xkZyKJ5uq6sU9dAtWqVg-1" vertex="1">
          <mxGeometry x="916" y="120" width="84" height="40" as="geometry" />
        </mxCell>
        <mxCell id="oYBEdMetGpaptJd9c9sY-23" value="" style="endArrow=none;html=1;rounded=0;entryX=0;entryY=0;entryDx=0;entryDy=0;exitX=0.995;exitY=0.638;exitDx=0;exitDy=0;exitPerimeter=0;" parent="xkZyKJ5uq6sU9dAtWqVg-1" source="5RRhg4thibyP128AycnL-0" target="oYBEdMetGpaptJd9c9sY-22" edge="1">
          <mxGeometry relative="1" as="geometry">
            <mxPoint x="1100" y="150" as="sourcePoint" />
            <mxPoint x="1140" y="140" as="targetPoint" />
          </mxGeometry>
        </mxCell>
        <mxCell id="oYBEdMetGpaptJd9c9sY-24" value="Tipo della stella" style="ellipse;whiteSpace=wrap;html=1;align=center;" parent="xkZyKJ5uq6sU9dAtWqVg-1" vertex="1">
          <mxGeometry x="686" y="90" width="70" height="40" as="geometry" />
        </mxCell>
        <mxCell id="oYBEdMetGpaptJd9c9sY-25" value="" style="endArrow=none;html=1;rounded=0;entryX=0;entryY=0.5;entryDx=0;entryDy=0;exitX=1;exitY=0.5;exitDx=0;exitDy=0;" parent="xkZyKJ5uq6sU9dAtWqVg-1" source="oYBEdMetGpaptJd9c9sY-24" target="5RRhg4thibyP128AycnL-0" edge="1">
          <mxGeometry relative="1" as="geometry">
            <mxPoint x="660" y="180" as="sourcePoint" />
            <mxPoint x="702" y="190" as="targetPoint" />
          </mxGeometry>
        </mxCell>
        <mxCell id="oYBEdMetGpaptJd9c9sY-27" value="classe" style="ellipse;whiteSpace=wrap;html=1;align=center;" parent="xkZyKJ5uq6sU9dAtWqVg-1" vertex="1">
          <mxGeometry x="700" y="271" width="54" height="40" as="geometry" />
        </mxCell>
        <mxCell id="oYBEdMetGpaptJd9c9sY-28" value="" style="endArrow=none;html=1;rounded=0;exitX=0.019;exitY=0.382;exitDx=0;exitDy=0;entryX=1;entryY=0.5;entryDx=0;entryDy=0;exitPerimeter=0;" parent="xkZyKJ5uq6sU9dAtWqVg-1" source="5RRhg4thibyP128AycnL-2" target="oYBEdMetGpaptJd9c9sY-27" edge="1">
          <mxGeometry width="50" height="50" relative="1" as="geometry">
            <mxPoint x="750" y="359" as="sourcePoint" />
            <mxPoint x="730" y="340" as="targetPoint" />
          </mxGeometry>
        </mxCell>
        <mxCell id="oYBEdMetGpaptJd9c9sY-30" value="abitabilità (booleano)" style="ellipse;whiteSpace=wrap;html=1;align=center;" parent="xkZyKJ5uq6sU9dAtWqVg-1" vertex="1">
          <mxGeometry x="693.5" y="320" width="82.5" height="40" as="geometry" />
        </mxCell>
        <mxCell id="oYBEdMetGpaptJd9c9sY-31" value="" style="endArrow=none;html=1;rounded=0;exitX=0;exitY=0.75;exitDx=0;exitDy=0;entryX=1;entryY=0;entryDx=0;entryDy=0;" parent="xkZyKJ5uq6sU9dAtWqVg-1" source="5RRhg4thibyP128AycnL-2" target="oYBEdMetGpaptJd9c9sY-30" edge="1">
          <mxGeometry width="50" height="50" relative="1" as="geometry">
            <mxPoint x="584" y="284" as="sourcePoint" />
            <mxPoint x="550" y="280" as="targetPoint" />
          </mxGeometry>
        </mxCell>
        <mxCell id="oYBEdMetGpaptJd9c9sY-32" value="Popolazione" style="ellipse;whiteSpace=wrap;html=1;align=center;" parent="xkZyKJ5uq6sU9dAtWqVg-1" vertex="1">
          <mxGeometry x="890" y="565.5" width="80" height="40" as="geometry" />
        </mxCell>
        <mxCell id="oYBEdMetGpaptJd9c9sY-33" value="" style="endArrow=none;html=1;rounded=0;exitX=1;exitY=0.25;exitDx=0;exitDy=0;entryX=0;entryY=1;entryDx=0;entryDy=0;" parent="xkZyKJ5uq6sU9dAtWqVg-1" source="SDKRW_U8eVPvxJMFkSfq-57" target="oYBEdMetGpaptJd9c9sY-32" edge="1">
          <mxGeometry relative="1" as="geometry">
            <mxPoint x="940" y="729.5438241006334" as="sourcePoint" />
            <mxPoint x="973.0751270296569" y="720" as="targetPoint" />
          </mxGeometry>
        </mxCell>
        <mxCell id="oYBEdMetGpaptJd9c9sY-36" value="Nome Operazione" style="ellipse;whiteSpace=wrap;html=1;align=center;" parent="xkZyKJ5uq6sU9dAtWqVg-1" vertex="1">
          <mxGeometry x="896" y="360" width="80" height="40" as="geometry" />
        </mxCell>
        <mxCell id="oYBEdMetGpaptJd9c9sY-37" value="" style="endArrow=none;html=1;rounded=0;exitX=1;exitY=0;exitDx=0;exitDy=0;entryX=0;entryY=1;entryDx=0;entryDy=0;" parent="xkZyKJ5uq6sU9dAtWqVg-1" source="oYBEdMetGpaptJd9c9sY-9" target="oYBEdMetGpaptJd9c9sY-36" edge="1">
          <mxGeometry relative="1" as="geometry">
            <mxPoint x="950" y="310" as="sourcePoint" />
            <mxPoint x="985.375127029657" y="318.74382410063333" as="targetPoint" />
          </mxGeometry>
        </mxCell>
        <mxCell id="oYBEdMetGpaptJd9c9sY-40" value="Status" style="ellipse;whiteSpace=wrap;html=1;align=center;" parent="xkZyKJ5uq6sU9dAtWqVg-1" vertex="1">
          <mxGeometry x="1160" y="271" width="55" height="40" as="geometry" />
        </mxCell>
        <mxCell id="oYBEdMetGpaptJd9c9sY-41" value="" style="endArrow=none;html=1;rounded=0;entryX=0;entryY=0.5;entryDx=0;entryDy=0;exitX=1;exitY=0.5;exitDx=0;exitDy=0;" parent="xkZyKJ5uq6sU9dAtWqVg-1" source="5RRhg4thibyP128AycnL-36" target="oYBEdMetGpaptJd9c9sY-40" edge="1">
          <mxGeometry relative="1" as="geometry">
            <mxPoint x="1210" y="220" as="sourcePoint" />
            <mxPoint x="1245" y="220" as="targetPoint" />
          </mxGeometry>
        </mxCell>
        <mxCell id="oYBEdMetGpaptJd9c9sY-42" value="Livello Pericolo" style="ellipse;whiteSpace=wrap;html=1;align=center;" parent="xkZyKJ5uq6sU9dAtWqVg-1" vertex="1">
          <mxGeometry x="1142.5" y="220" width="55" height="40" as="geometry" />
        </mxCell>
        <mxCell id="oYBEdMetGpaptJd9c9sY-43" value="" style="endArrow=none;html=1;rounded=0;entryX=0;entryY=1;entryDx=0;entryDy=0;exitX=1;exitY=0.25;exitDx=0;exitDy=0;" parent="xkZyKJ5uq6sU9dAtWqVg-1" source="5RRhg4thibyP128AycnL-36" target="oYBEdMetGpaptJd9c9sY-42" edge="1">
          <mxGeometry relative="1" as="geometry">
            <mxPoint x="1210" y="246" as="sourcePoint" />
            <mxPoint x="1238" y="220" as="targetPoint" />
          </mxGeometry>
        </mxCell>
        <mxCell id="oYBEdMetGpaptJd9c9sY-47" value="" style="endArrow=none;html=1;rounded=0;exitX=1;exitY=0.75;exitDx=0;exitDy=0;entryX=0;entryY=0;entryDx=0;entryDy=0;" parent="xkZyKJ5uq6sU9dAtWqVg-1" source="SDKRW_U8eVPvxJMFkSfq-57" target="SDKRW_U8eVPvxJMFkSfq-50" edge="1">
          <mxGeometry relative="1" as="geometry">
            <mxPoint x="920" y="800" as="sourcePoint" />
            <mxPoint x="963" y="816" as="targetPoint" />
          </mxGeometry>
        </mxCell>
        <mxCell id="oYBEdMetGpaptJd9c9sY-51" value="Specializzazione" style="ellipse;whiteSpace=wrap;html=1;align=center;" parent="xkZyKJ5uq6sU9dAtWqVg-1" vertex="1">
          <mxGeometry x="1482.25" y="928" width="100" height="40" as="geometry" />
        </mxCell>
        <mxCell id="oYBEdMetGpaptJd9c9sY-52" value="" style="endArrow=none;html=1;rounded=0;exitX=0;exitY=0;exitDx=0;exitDy=0;entryX=1;entryY=0.75;entryDx=0;entryDy=0;" parent="xkZyKJ5uq6sU9dAtWqVg-1" source="oYBEdMetGpaptJd9c9sY-51" target="5RRhg4thibyP128AycnL-35" edge="1">
          <mxGeometry relative="1" as="geometry">
            <mxPoint x="1542.25" y="1010" as="sourcePoint" />
            <mxPoint x="1517.25" y="1011" as="targetPoint" />
          </mxGeometry>
        </mxCell>
        <mxCell id="oYBEdMetGpaptJd9c9sY-54" value="Nome Funzionario" style="ellipse;whiteSpace=wrap;html=1;align=center;" parent="xkZyKJ5uq6sU9dAtWqVg-1" vertex="1">
          <mxGeometry x="290" y="470" width="80" height="50" as="geometry" />
        </mxCell>
        <mxCell id="oYBEdMetGpaptJd9c9sY-56" value="" style="endArrow=none;html=1;rounded=0;exitX=1;exitY=1;exitDx=0;exitDy=0;entryX=0;entryY=0.25;entryDx=0;entryDy=0;" parent="xkZyKJ5uq6sU9dAtWqVg-1" source="oYBEdMetGpaptJd9c9sY-54" edge="1">
          <mxGeometry relative="1" as="geometry">
            <mxPoint x="520" y="419.5438241006334" as="sourcePoint" />
            <mxPoint x="400" y="550" as="targetPoint" />
          </mxGeometry>
        </mxCell>
        <mxCell id="oYBEdMetGpaptJd9c9sY-57" value="N Dipendenti" style="ellipse;whiteSpace=wrap;html=1;align=center;" parent="xkZyKJ5uq6sU9dAtWqVg-1" vertex="1">
          <mxGeometry x="280" y="530.5" width="80" height="35" as="geometry" />
        </mxCell>
        <mxCell id="oYBEdMetGpaptJd9c9sY-58" value="" style="endArrow=none;html=1;rounded=0;exitX=1;exitY=0.5;exitDx=0;exitDy=0;entryX=0;entryY=0.5;entryDx=0;entryDy=0;" parent="xkZyKJ5uq6sU9dAtWqVg-1" source="oYBEdMetGpaptJd9c9sY-57" edge="1">
          <mxGeometry relative="1" as="geometry">
            <mxPoint x="430" y="510" as="sourcePoint" />
            <mxPoint x="400" y="560" as="targetPoint" />
          </mxGeometry>
        </mxCell>
        <mxCell id="oYBEdMetGpaptJd9c9sY-62" value="" style="endArrow=none;html=1;rounded=0;exitX=-0.007;exitY=0.846;exitDx=0;exitDy=0;entryX=1;entryY=0;entryDx=0;entryDy=0;exitPerimeter=0;" parent="xkZyKJ5uq6sU9dAtWqVg-1" source="skqzL_gy3SJHRYQdTLHT-11" edge="1">
          <mxGeometry relative="1" as="geometry">
            <mxPoint x="375" y="1090" as="sourcePoint" />
            <mxPoint x="348.4054013578964" y="1115.770722677017" as="targetPoint" />
          </mxGeometry>
        </mxCell>
        <mxCell id="oYBEdMetGpaptJd9c9sY-65" value="Anno di Fondazione" style="ellipse;whiteSpace=wrap;html=1;align=center;" parent="xkZyKJ5uq6sU9dAtWqVg-1" vertex="1">
          <mxGeometry x="380" y="445" width="80" height="50" as="geometry" />
        </mxCell>
        <mxCell id="oYBEdMetGpaptJd9c9sY-66" value="" style="endArrow=none;html=1;rounded=0;exitX=0.5;exitY=1;exitDx=0;exitDy=0;entryX=0.25;entryY=0;entryDx=0;entryDy=0;" parent="xkZyKJ5uq6sU9dAtWqVg-1" source="oYBEdMetGpaptJd9c9sY-65" edge="1">
          <mxGeometry relative="1" as="geometry">
            <mxPoint x="390" y="400" as="sourcePoint" />
            <mxPoint x="425" y="540" as="targetPoint" />
          </mxGeometry>
        </mxCell>
        <mxCell id="oYBEdMetGpaptJd9c9sY-67" value="N Giacimenti a carico" style="ellipse;whiteSpace=wrap;html=1;align=center;" parent="xkZyKJ5uq6sU9dAtWqVg-1" vertex="1">
          <mxGeometry x="180" y="738" width="80" height="50" as="geometry" />
        </mxCell>
        <mxCell id="oYBEdMetGpaptJd9c9sY-68" value="" style="endArrow=none;html=1;rounded=0;exitX=0;exitY=1;exitDx=0;exitDy=0;entryX=1;entryY=0.25;entryDx=0;entryDy=0;" parent="xkZyKJ5uq6sU9dAtWqVg-1" source="oYBEdMetGpaptJd9c9sY-67" target="5RRhg4thibyP128AycnL-19" edge="1">
          <mxGeometry relative="1" as="geometry">
            <mxPoint x="300" y="755" as="sourcePoint" />
            <mxPoint x="335" y="895" as="targetPoint" />
          </mxGeometry>
        </mxCell>
        <mxCell id="oYBEdMetGpaptJd9c9sY-70" value="" style="endArrow=none;html=1;rounded=0;exitX=1;exitY=0.5;exitDx=0;exitDy=0;entryX=0;entryY=0.5;entryDx=0;entryDy=0;" parent="xkZyKJ5uq6sU9dAtWqVg-1" source="oYBEdMetGpaptJd9c9sY-71" target="5RRhg4thibyP128AycnL-23" edge="1">
          <mxGeometry relative="1" as="geometry">
            <mxPoint x="341.7157287525383" y="902.6776695296637" as="sourcePoint" />
            <mxPoint x="310" y="917" as="targetPoint" />
          </mxGeometry>
        </mxCell>
        <mxCell id="oYBEdMetGpaptJd9c9sY-71" value="N Stabilimenti Produttivi" style="ellipse;whiteSpace=wrap;html=1;align=center;" parent="xkZyKJ5uq6sU9dAtWqVg-1" vertex="1">
          <mxGeometry x="300" y="780" width="80" height="50" as="geometry" />
        </mxCell>
        <mxCell id="oYBEdMetGpaptJd9c9sY-73" value="Distanza Tragitto" style="ellipse;whiteSpace=wrap;html=1;align=center;" parent="xkZyKJ5uq6sU9dAtWqVg-1" vertex="1">
          <mxGeometry x="626" y="1220" width="60" height="40" as="geometry" />
        </mxCell>
        <mxCell id="oYBEdMetGpaptJd9c9sY-74" value="" style="endArrow=none;html=1;rounded=0;exitX=0.5;exitY=0;exitDx=0;exitDy=0;entryX=1;entryY=1;entryDx=0;entryDy=0;" parent="xkZyKJ5uq6sU9dAtWqVg-1" source="oYBEdMetGpaptJd9c9sY-73" target="RKXKa0fFr_hQ-l0K3k0U-15" edge="1">
          <mxGeometry relative="1" as="geometry">
            <mxPoint x="790" y="1300" as="sourcePoint" />
            <mxPoint x="770" y="1270" as="targetPoint" />
          </mxGeometry>
        </mxCell>
        <mxCell id="oYBEdMetGpaptJd9c9sY-76" value="velocità max" style="ellipse;whiteSpace=wrap;html=1;align=center;" parent="xkZyKJ5uq6sU9dAtWqVg-1" vertex="1">
          <mxGeometry x="965" y="987" width="75" height="30" as="geometry" />
        </mxCell>
        <mxCell id="oYBEdMetGpaptJd9c9sY-77" value="" style="endArrow=none;html=1;rounded=0;exitX=1;exitY=0.75;exitDx=0;exitDy=0;entryX=0;entryY=0.5;entryDx=0;entryDy=0;" parent="xkZyKJ5uq6sU9dAtWqVg-1" source="5RRhg4thibyP128AycnL-43" target="oYBEdMetGpaptJd9c9sY-76" edge="1">
          <mxGeometry relative="1" as="geometry">
            <mxPoint x="1042" y="1064" as="sourcePoint" />
            <mxPoint x="1030" y="1040" as="targetPoint" />
          </mxGeometry>
        </mxCell>
        <mxCell id="oYBEdMetGpaptJd9c9sY-82" value="" style="endArrow=none;html=1;rounded=0;exitX=1;exitY=1;exitDx=0;exitDy=0;entryX=0;entryY=0;entryDx=0;entryDy=0;" parent="xkZyKJ5uq6sU9dAtWqVg-1" source="oYBEdMetGpaptJd9c9sY-83" edge="1">
          <mxGeometry relative="1" as="geometry">
            <mxPoint x="421.7157287525383" y="992.6776695296637" as="sourcePoint" />
            <mxPoint x="410.5" y="969.75" as="targetPoint" />
          </mxGeometry>
        </mxCell>
        <mxCell id="oYBEdMetGpaptJd9c9sY-83" value="Anno di Produzione" style="ellipse;whiteSpace=wrap;html=1;align=center;" parent="xkZyKJ5uq6sU9dAtWqVg-1" vertex="1">
          <mxGeometry x="310" y="910" width="80" height="50" as="geometry" />
        </mxCell>
        <mxCell id="oYBEdMetGpaptJd9c9sY-84" value="Capacità di carico max" style="ellipse;whiteSpace=wrap;html=1;align=center;" parent="xkZyKJ5uq6sU9dAtWqVg-1" vertex="1">
          <mxGeometry x="786" y="1141.5" width="75" height="37" as="geometry" />
        </mxCell>
        <mxCell id="oYBEdMetGpaptJd9c9sY-85" value="" style="endArrow=none;html=1;rounded=0;exitX=0.5;exitY=1;exitDx=0;exitDy=0;entryX=0.5;entryY=0;entryDx=0;entryDy=0;" parent="xkZyKJ5uq6sU9dAtWqVg-1" source="5RRhg4thibyP128AycnL-42" target="oYBEdMetGpaptJd9c9sY-84" edge="1">
          <mxGeometry relative="1" as="geometry">
            <mxPoint x="810" y="1340" as="sourcePoint" />
            <mxPoint x="945" y="1409" as="targetPoint" />
            <Array as="points" />
          </mxGeometry>
        </mxCell>
        <mxCell id="oYBEdMetGpaptJd9c9sY-86" value="Ruolo" style="ellipse;whiteSpace=wrap;html=1;align=center;" parent="xkZyKJ5uq6sU9dAtWqVg-1" vertex="1">
          <mxGeometry x="932.12" y="1147.25" width="51.75" height="25.5" as="geometry" />
        </mxCell>
        <mxCell id="oYBEdMetGpaptJd9c9sY-87" value="" style="endArrow=none;html=1;rounded=0;exitX=0.25;exitY=1;exitDx=0;exitDy=0;entryX=0.5;entryY=0;entryDx=0;entryDy=0;" parent="xkZyKJ5uq6sU9dAtWqVg-1" source="5RRhg4thibyP128AycnL-41" target="oYBEdMetGpaptJd9c9sY-86" edge="1">
          <mxGeometry relative="1" as="geometry">
            <mxPoint x="909" y="1220" as="sourcePoint" />
            <mxPoint x="1049" y="1510" as="targetPoint" />
            <Array as="points" />
          </mxGeometry>
        </mxCell>
        <mxCell id="oYBEdMetGpaptJd9c9sY-88" value="modello" style="ellipse;whiteSpace=wrap;html=1;align=center;" parent="xkZyKJ5uq6sU9dAtWqVg-1" vertex="1">
          <mxGeometry x="965" y="950" width="65" height="27" as="geometry" />
        </mxCell>
        <mxCell id="oYBEdMetGpaptJd9c9sY-89" value="" style="endArrow=none;html=1;rounded=0;exitX=1.001;exitY=0.405;exitDx=0;exitDy=0;entryX=0;entryY=0.5;entryDx=0;entryDy=0;exitPerimeter=0;" parent="xkZyKJ5uq6sU9dAtWqVg-1" source="5RRhg4thibyP128AycnL-43" target="oYBEdMetGpaptJd9c9sY-88" edge="1">
          <mxGeometry relative="1" as="geometry">
            <mxPoint x="970" y="957" as="sourcePoint" />
            <mxPoint x="1065" y="1004" as="targetPoint" />
          </mxGeometry>
        </mxCell>
        <mxCell id="oYBEdMetGpaptJd9c9sY-90" value="N Navi" style="ellipse;whiteSpace=wrap;html=1;align=center;dashed=1;" parent="xkZyKJ5uq6sU9dAtWqVg-1" vertex="1">
          <mxGeometry x="1070" y="1244.5" width="51.75" height="25.5" as="geometry" />
        </mxCell>
        <mxCell id="oYBEdMetGpaptJd9c9sY-91" value="" style="endArrow=none;html=1;rounded=0;exitX=1;exitY=0.5;exitDx=0;exitDy=0;entryX=0;entryY=0.5;entryDx=0;entryDy=0;" parent="xkZyKJ5uq6sU9dAtWqVg-1" source="5RRhg4thibyP128AycnL-106" target="oYBEdMetGpaptJd9c9sY-90" edge="1">
          <mxGeometry relative="1" as="geometry">
            <mxPoint x="1147.88" y="1200" as="sourcePoint" />
            <mxPoint x="1216.88" y="1592" as="targetPoint" />
            <Array as="points" />
          </mxGeometry>
        </mxCell>
        <mxCell id="oYBEdMetGpaptJd9c9sY-94" value="Effettivi Flotta" style="ellipse;whiteSpace=wrap;html=1;align=center;" parent="xkZyKJ5uq6sU9dAtWqVg-1" vertex="1">
          <mxGeometry x="1512.25" y="1352.25" width="70" height="37" as="geometry" />
        </mxCell>
        <mxCell id="oYBEdMetGpaptJd9c9sY-95" value="" style="endArrow=none;html=1;rounded=0;exitX=0;exitY=0.5;exitDx=0;exitDy=0;entryX=1;entryY=0.5;entryDx=0;entryDy=0;" parent="xkZyKJ5uq6sU9dAtWqVg-1" source="oYBEdMetGpaptJd9c9sY-94" target="5RRhg4thibyP128AycnL-105" edge="1">
          <mxGeometry relative="1" as="geometry">
            <mxPoint x="1908.25" y="1342" as="sourcePoint" />
            <mxPoint x="1650" y="1330" as="targetPoint" />
          </mxGeometry>
        </mxCell>
        <mxCell id="oYBEdMetGpaptJd9c9sY-97" value="" style="endArrow=none;html=1;rounded=0;exitX=0;exitY=0.25;exitDx=0;exitDy=0;entryX=1;entryY=0.5;entryDx=0;entryDy=0;" parent="xkZyKJ5uq6sU9dAtWqVg-1" source="5RRhg4thibyP128AycnL-133" target="oYBEdMetGpaptJd9c9sY-99" edge="1">
          <mxGeometry relative="1" as="geometry">
            <mxPoint x="1250" y="1509.5" as="sourcePoint" />
            <mxPoint x="1321.2132034356305" y="1528.3578643762467" as="targetPoint" />
          </mxGeometry>
        </mxCell>
        <mxCell id="oYBEdMetGpaptJd9c9sY-99" value="Nome Addestratore" style="ellipse;whiteSpace=wrap;html=1;align=center;" parent="xkZyKJ5uq6sU9dAtWqVg-1" vertex="1">
          <mxGeometry x="1230" y="1490" width="100" height="40" as="geometry" />
        </mxCell>
        <mxCell id="oYBEdMetGpaptJd9c9sY-100" value="" style="endArrow=none;html=1;rounded=0;entryX=1;entryY=0.5;entryDx=0;entryDy=0;exitX=0.024;exitY=0.639;exitDx=0;exitDy=0;exitPerimeter=0;" parent="xkZyKJ5uq6sU9dAtWqVg-1" source="5RRhg4thibyP128AycnL-133" target="oYBEdMetGpaptJd9c9sY-101" edge="1">
          <mxGeometry relative="1" as="geometry">
            <mxPoint x="1360" y="1550" as="sourcePoint" />
            <mxPoint x="1321.2132034356305" y="1618.3578643762467" as="targetPoint" />
          </mxGeometry>
        </mxCell>
        <mxCell id="oYBEdMetGpaptJd9c9sY-101" value="Età" style="ellipse;whiteSpace=wrap;html=1;align=center;" parent="xkZyKJ5uq6sU9dAtWqVg-1" vertex="1">
          <mxGeometry x="1250" y="1540" width="60" height="30" as="geometry" />
        </mxCell>
        <mxCell id="oYBEdMetGpaptJd9c9sY-102" value="Peso Totale" style="ellipse;whiteSpace=wrap;html=1;align=center;" parent="xkZyKJ5uq6sU9dAtWqVg-1" vertex="1">
          <mxGeometry x="160" y="1046" width="50" height="41" as="geometry" />
        </mxCell>
        <mxCell id="oYBEdMetGpaptJd9c9sY-104" value="Data di Estrazione" style="ellipse;whiteSpace=wrap;html=1;align=center;" parent="xkZyKJ5uq6sU9dAtWqVg-1" vertex="1">
          <mxGeometry x="90" y="1090.5" width="80" height="62.75" as="geometry" />
        </mxCell>
        <mxCell id="oYBEdMetGpaptJd9c9sY-105" value="" style="endArrow=none;html=1;rounded=0;exitX=0.867;exitY=1.058;exitDx=0;exitDy=0;entryX=0.5;entryY=0;entryDx=0;entryDy=0;exitPerimeter=0;" parent="xkZyKJ5uq6sU9dAtWqVg-1" source="5RRhg4thibyP128AycnL-15" target="oYBEdMetGpaptJd9c9sY-102" edge="1">
          <mxGeometry relative="1" as="geometry">
            <mxPoint x="137" y="1050" as="sourcePoint" />
            <mxPoint x="120" y="1080" as="targetPoint" />
          </mxGeometry>
        </mxCell>
        <mxCell id="oYBEdMetGpaptJd9c9sY-106" value="" style="endArrow=none;html=1;rounded=0;exitX=0.5;exitY=0;exitDx=0;exitDy=0;entryX=0.5;entryY=1;entryDx=0;entryDy=0;" parent="xkZyKJ5uq6sU9dAtWqVg-1" source="oYBEdMetGpaptJd9c9sY-104" target="5RRhg4thibyP128AycnL-15" edge="1">
          <mxGeometry relative="1" as="geometry">
            <mxPoint x="90" y="1190" as="sourcePoint" />
            <mxPoint x="128" y="1214" as="targetPoint" />
          </mxGeometry>
        </mxCell>
        <mxCell id="oYBEdMetGpaptJd9c9sY-107" value="Purezza" style="ellipse;whiteSpace=wrap;html=1;align=center;" parent="xkZyKJ5uq6sU9dAtWqVg-1" vertex="1">
          <mxGeometry x="-260" y="915" width="60" height="30" as="geometry" />
        </mxCell>
        <mxCell id="oYBEdMetGpaptJd9c9sY-108" value="" style="endArrow=none;html=1;rounded=0;exitX=0;exitY=0.5;exitDx=0;exitDy=0;entryX=1;entryY=0.5;entryDx=0;entryDy=0;" parent="xkZyKJ5uq6sU9dAtWqVg-1" source="5RRhg4thibyP128AycnL-26" target="oYBEdMetGpaptJd9c9sY-107" edge="1">
          <mxGeometry relative="1" as="geometry">
            <mxPoint x="-213" y="1000" as="sourcePoint" />
            <mxPoint x="-230" y="1030" as="targetPoint" />
          </mxGeometry>
        </mxCell>
        <mxCell id="oYBEdMetGpaptJd9c9sY-109" value="Conduttività" style="ellipse;whiteSpace=wrap;html=1;align=center;" parent="xkZyKJ5uq6sU9dAtWqVg-1" vertex="1">
          <mxGeometry x="-270" y="968" width="80" height="27" as="geometry" />
        </mxCell>
        <mxCell id="oYBEdMetGpaptJd9c9sY-110" value="" style="endArrow=none;html=1;rounded=0;exitX=0;exitY=0.25;exitDx=0;exitDy=0;entryX=1;entryY=0.5;entryDx=0;entryDy=0;" parent="xkZyKJ5uq6sU9dAtWqVg-1" source="5RRhg4thibyP128AycnL-30" target="oYBEdMetGpaptJd9c9sY-109" edge="1">
          <mxGeometry relative="1" as="geometry">
            <mxPoint x="-220" y="1050" as="sourcePoint" />
            <mxPoint x="-250" y="1050" as="targetPoint" />
          </mxGeometry>
        </mxCell>
        <mxCell id="oYBEdMetGpaptJd9c9sY-111" value="Densità" style="ellipse;whiteSpace=wrap;html=1;align=center;" parent="xkZyKJ5uq6sU9dAtWqVg-1" vertex="1">
          <mxGeometry x="-270" y="1003" width="80" height="27" as="geometry" />
        </mxCell>
        <mxCell id="oYBEdMetGpaptJd9c9sY-112" value="" style="endArrow=none;html=1;rounded=0;exitX=0;exitY=0.75;exitDx=0;exitDy=0;entryX=1;entryY=0.5;entryDx=0;entryDy=0;" parent="xkZyKJ5uq6sU9dAtWqVg-1" source="5RRhg4thibyP128AycnL-30" target="oYBEdMetGpaptJd9c9sY-111" edge="1">
          <mxGeometry relative="1" as="geometry">
            <mxPoint x="-210" y="1073" as="sourcePoint" />
            <mxPoint x="-230" y="1060" as="targetPoint" />
          </mxGeometry>
        </mxCell>
        <mxCell id="oYBEdMetGpaptJd9c9sY-113" value="&lt;span data-end=&quot;911&quot; data-start=&quot;881&quot;&gt;Stabilità di Campo Inverso&lt;/span&gt;" style="ellipse;whiteSpace=wrap;html=1;align=center;" parent="xkZyKJ5uq6sU9dAtWqVg-1" vertex="1">
          <mxGeometry x="-280" y="1046" width="90" height="44" as="geometry" />
        </mxCell>
        <mxCell id="oYBEdMetGpaptJd9c9sY-114" value="" style="endArrow=none;html=1;rounded=0;exitX=0;exitY=0.5;exitDx=0;exitDy=0;entryX=1;entryY=0.5;entryDx=0;entryDy=0;" parent="xkZyKJ5uq6sU9dAtWqVg-1" source="5RRhg4thibyP128AycnL-28" target="oYBEdMetGpaptJd9c9sY-113" edge="1">
          <mxGeometry relative="1" as="geometry">
            <mxPoint x="-160" y="1150" as="sourcePoint" />
            <mxPoint x="-190" y="1150" as="targetPoint" />
          </mxGeometry>
        </mxCell>
        <mxCell id="jT7q4GYJzDAXKeNE5UMb-0" value="Corporation" style="whiteSpace=wrap;html=1;align=center;" parent="xkZyKJ5uq6sU9dAtWqVg-1" vertex="1">
          <mxGeometry x="400" y="540" width="100" height="40" as="geometry" />
        </mxCell>
        <mxCell id="jT7q4GYJzDAXKeNE5UMb-1" value="si insedia" style="shape=rhombus;perimeter=rhombusPerimeter;whiteSpace=wrap;html=1;align=center;" parent="xkZyKJ5uq6sU9dAtWqVg-1" vertex="1">
          <mxGeometry x="555" y="595" width="90" height="50" as="geometry" />
        </mxCell>
        <mxCell id="jT7q4GYJzDAXKeNE5UMb-2" value="nome&lt;div&gt;armata&lt;/div&gt;" style="ellipse;whiteSpace=wrap;html=1;align=center;" parent="xkZyKJ5uq6sU9dAtWqVg-1" vertex="1">
          <mxGeometry x="1484.75" y="825" width="57.75" height="37.5" as="geometry" />
        </mxCell>
        <mxCell id="jT7q4GYJzDAXKeNE5UMb-3" value="Produce" style="shape=rhombus;perimeter=rhombusPerimeter;whiteSpace=wrap;html=1;align=center;" parent="xkZyKJ5uq6sU9dAtWqVg-1" vertex="1">
          <mxGeometry x="448" y="904" width="62" height="52" as="geometry" />
        </mxCell>
        <mxCell id="jT7q4GYJzDAXKeNE5UMb-4" value="" style="endArrow=none;html=1;rounded=0;exitX=0.796;exitY=1.011;exitDx=0;exitDy=0;entryX=0.5;entryY=0;entryDx=0;entryDy=0;exitPerimeter=0;" parent="xkZyKJ5uq6sU9dAtWqVg-1" source="5RRhg4thibyP128AycnL-23" target="jT7q4GYJzDAXKeNE5UMb-3" edge="1">
          <mxGeometry relative="1" as="geometry">
            <mxPoint x="470" y="890" as="sourcePoint" />
            <mxPoint x="471" y="1022" as="targetPoint" />
          </mxGeometry>
        </mxCell>
        <mxCell id="jT7q4GYJzDAXKeNE5UMb-5" value="1" style="resizable=0;html=1;whiteSpace=wrap;align=left;verticalAlign=bottom;" parent="jT7q4GYJzDAXKeNE5UMb-4" connectable="0" vertex="1">
          <mxGeometry x="-1" relative="1" as="geometry">
            <mxPoint x="-15" y="39" as="offset" />
          </mxGeometry>
        </mxCell>
        <mxCell id="jT7q4GYJzDAXKeNE5UMb-6" value="" style="endArrow=none;html=1;rounded=0;exitX=0;exitY=1;exitDx=0;exitDy=0;entryX=1;entryY=0;entryDx=0;entryDy=0;" parent="xkZyKJ5uq6sU9dAtWqVg-1" source="jT7q4GYJzDAXKeNE5UMb-7" target="jT7q4GYJzDAXKeNE5UMb-3" edge="1">
          <mxGeometry relative="1" as="geometry">
            <mxPoint x="611.2157287525383" y="925.6776695296637" as="sourcePoint" />
            <mxPoint x="555" y="914.9999999999998" as="targetPoint" />
          </mxGeometry>
        </mxCell>
        <mxCell id="jT7q4GYJzDAXKeNE5UMb-7" value="Anno di Produzione" style="ellipse;whiteSpace=wrap;html=1;align=center;" parent="xkZyKJ5uq6sU9dAtWqVg-1" vertex="1">
          <mxGeometry x="500" y="835" width="70.5" height="47" as="geometry" />
        </mxCell>
        <mxCell id="jT7q4GYJzDAXKeNE5UMb-9" value="N" style="resizable=0;html=1;whiteSpace=wrap;align=left;verticalAlign=bottom;direction=north;" parent="xkZyKJ5uq6sU9dAtWqVg-1" connectable="0" vertex="1">
          <mxGeometry x="435" y="1139" as="geometry" />
        </mxCell>
        <mxCell id="skqzL_gy3SJHRYQdTLHT-1" value="Finanzia" style="shape=rhombus;perimeter=rhombusPerimeter;whiteSpace=wrap;html=1;align=center;" parent="xkZyKJ5uq6sU9dAtWqVg-1" vertex="1">
          <mxGeometry x="542.5" y="410" width="90" height="60" as="geometry" />
        </mxCell>
        <mxCell id="skqzL_gy3SJHRYQdTLHT-2" value="" style="endArrow=none;html=1;rounded=0;exitX=0.75;exitY=0;exitDx=0;exitDy=0;entryX=0;entryY=0.5;entryDx=0;entryDy=0;" parent="xkZyKJ5uq6sU9dAtWqVg-1" source="jT7q4GYJzDAXKeNE5UMb-0" target="skqzL_gy3SJHRYQdTLHT-1" edge="1">
          <mxGeometry width="50" height="50" relative="1" as="geometry">
            <mxPoint x="580" y="490" as="sourcePoint" />
            <mxPoint x="630" y="440" as="targetPoint" />
            <Array as="points">
              <mxPoint x="475" y="440" />
            </Array>
          </mxGeometry>
        </mxCell>
        <mxCell id="skqzL_gy3SJHRYQdTLHT-3" value="" style="endArrow=none;html=1;rounded=0;exitX=1;exitY=0.5;exitDx=0;exitDy=0;entryX=0;entryY=0.5;entryDx=0;entryDy=0;" parent="xkZyKJ5uq6sU9dAtWqVg-1" source="skqzL_gy3SJHRYQdTLHT-1" target="oYBEdMetGpaptJd9c9sY-9" edge="1">
          <mxGeometry width="50" height="50" relative="1" as="geometry">
            <mxPoint x="560" y="580" as="sourcePoint" />
            <mxPoint x="628" y="490" as="targetPoint" />
            <Array as="points" />
          </mxGeometry>
        </mxCell>
        <mxCell id="skqzL_gy3SJHRYQdTLHT-4" value="valore contributo" style="ellipse;whiteSpace=wrap;html=1;align=center;" parent="xkZyKJ5uq6sU9dAtWqVg-1" vertex="1">
          <mxGeometry x="557.75" y="361.5" width="59.5" height="39" as="geometry" />
        </mxCell>
        <mxCell id="skqzL_gy3SJHRYQdTLHT-5" value="" style="endArrow=none;html=1;rounded=0;exitX=0.5;exitY=0;exitDx=0;exitDy=0;entryX=0.5;entryY=1;entryDx=0;entryDy=0;" parent="xkZyKJ5uq6sU9dAtWqVg-1" source="skqzL_gy3SJHRYQdTLHT-1" target="skqzL_gy3SJHRYQdTLHT-4" edge="1">
          <mxGeometry width="50" height="50" relative="1" as="geometry">
            <mxPoint x="643" y="375" as="sourcePoint" />
            <mxPoint x="585" y="420" as="targetPoint" />
          </mxGeometry>
        </mxCell>
        <mxCell id="skqzL_gy3SJHRYQdTLHT-6" value="N" style="resizable=0;html=1;whiteSpace=wrap;align=right;verticalAlign=bottom;" parent="xkZyKJ5uq6sU9dAtWqVg-1" connectable="0" vertex="1">
          <mxGeometry x="517" y="463" as="geometry" />
        </mxCell>
        <mxCell id="skqzL_gy3SJHRYQdTLHT-7" value="M" style="resizable=0;html=1;whiteSpace=wrap;align=right;verticalAlign=bottom;" parent="xkZyKJ5uq6sU9dAtWqVg-1" connectable="0" vertex="1">
          <mxGeometry x="660" y="463" as="geometry" />
        </mxCell>
        <mxCell id="skqzL_gy3SJHRYQdTLHT-8" value="è effettuato" style="shape=rhombus;perimeter=rhombusPerimeter;whiteSpace=wrap;html=1;align=center;" parent="xkZyKJ5uq6sU9dAtWqVg-1" vertex="1">
          <mxGeometry x="1261.25" y="871" width="82" height="53" as="geometry" />
        </mxCell>
        <mxCell id="skqzL_gy3SJHRYQdTLHT-9" value="classe" style="ellipse;whiteSpace=wrap;html=1;align=center;" parent="xkZyKJ5uq6sU9dAtWqVg-1" vertex="1">
          <mxGeometry x="936.74" y="915" width="65" height="27" as="geometry" />
        </mxCell>
        <mxCell id="skqzL_gy3SJHRYQdTLHT-10" value="" style="endArrow=none;html=1;rounded=0;entryX=0;entryY=0.5;entryDx=0;entryDy=0;exitX=0.842;exitY=0.042;exitDx=0;exitDy=0;exitPerimeter=0;" parent="xkZyKJ5uq6sU9dAtWqVg-1" edge="1">
          <mxGeometry relative="1" as="geometry">
            <mxPoint x="919.1999999999998" y="962.6799999999998" as="sourcePoint" />
            <mxPoint x="936.7400000000112" y="926.5" as="targetPoint" />
          </mxGeometry>
        </mxCell>
        <mxCell id="skqzL_gy3SJHRYQdTLHT-11" value="Armi" style="shape=ext;margin=3;double=1;whiteSpace=wrap;html=1;align=center;" parent="xkZyKJ5uq6sU9dAtWqVg-1" vertex="1">
          <mxGeometry x="375.5" y="1070" width="100" height="40" as="geometry" />
        </mxCell>
        <mxCell id="skqzL_gy3SJHRYQdTLHT-12" value="Produce" style="shape=rhombus;double=1;perimeter=rhombusPerimeter;whiteSpace=wrap;html=1;align=center;" parent="xkZyKJ5uq6sU9dAtWqVg-1" vertex="1">
          <mxGeometry x="390.5" y="954" width="70" height="58" as="geometry" />
        </mxCell>
        <mxCell id="skqzL_gy3SJHRYQdTLHT-15" value="casa produttrice" style="ellipse;whiteSpace=wrap;html=1;align=center;dashed=1;" parent="xkZyKJ5uq6sU9dAtWqVg-1" vertex="1">
          <mxGeometry x="280" y="1035" width="82.75" height="35" as="geometry" />
        </mxCell>
        <mxCell id="skqzL_gy3SJHRYQdTLHT-16" value="" style="endArrow=none;html=1;rounded=0;exitX=1;exitY=1;exitDx=0;exitDy=0;entryX=0;entryY=0.25;entryDx=0;entryDy=0;" parent="xkZyKJ5uq6sU9dAtWqVg-1" source="skqzL_gy3SJHRYQdTLHT-15" target="skqzL_gy3SJHRYQdTLHT-11" edge="1">
          <mxGeometry relative="1" as="geometry">
            <mxPoint x="380" y="1040" as="sourcePoint" />
            <mxPoint x="411" y="1047" as="targetPoint" />
          </mxGeometry>
        </mxCell>
        <mxCell id="skqzL_gy3SJHRYQdTLHT-17" value="&lt;span style=&quot;border-bottom: 1px dotted;&quot;&gt;Tipo Arma&lt;/span&gt;" style="ellipse;whiteSpace=wrap;html=1;align=center;" parent="xkZyKJ5uq6sU9dAtWqVg-1" vertex="1">
          <mxGeometry x="275.19" y="1110" width="84.12" height="40" as="geometry" />
        </mxCell>
        <mxCell id="skqzL_gy3SJHRYQdTLHT-18" value="&lt;span style=&quot;border-bottom: 1px dotted;&quot;&gt;modello&lt;/span&gt;" style="ellipse;whiteSpace=wrap;html=1;align=center;" parent="xkZyKJ5uq6sU9dAtWqVg-1" vertex="1">
          <mxGeometry x="287.25" y="1074.5" width="60" height="31" as="geometry" />
        </mxCell>
        <mxCell id="skqzL_gy3SJHRYQdTLHT-20" value="&lt;span style=&quot;border-bottom: 1px dotted;&quot;&gt;Data Inizio&lt;/span&gt;" style="ellipse;whiteSpace=wrap;html=1;align=center;" parent="xkZyKJ5uq6sU9dAtWqVg-1" vertex="1">
          <mxGeometry x="1115" y="940" width="62" height="30" as="geometry" />
        </mxCell>
        <mxCell id="5PHm_O9U52of-gbMtEqA-0" value="Nome Corporation" style="ellipse;whiteSpace=wrap;html=1;align=center;" parent="xkZyKJ5uq6sU9dAtWqVg-1" vertex="1">
          <mxGeometry x="295.5" y="576" width="80" height="40" as="geometry" />
        </mxCell>
        <mxCell id="YphxhPwjbheSzxvwdjl8-1" value="" style="endArrow=none;html=1;rounded=0;entryX=0.5;entryY=1;entryDx=0;entryDy=0;exitX=0.5;exitY=0;exitDx=0;exitDy=0;" parent="xkZyKJ5uq6sU9dAtWqVg-1" source="5RRhg4thibyP128AycnL-87" target="5RRhg4thibyP128AycnL-20" edge="1">
          <mxGeometry width="50" height="50" relative="1" as="geometry">
            <mxPoint x="590" y="920" as="sourcePoint" />
            <mxPoint x="640" y="870" as="targetPoint" />
          </mxGeometry>
        </mxCell>
        <mxCell id="YphxhPwjbheSzxvwdjl8-2" value="1" style="resizable=0;html=1;whiteSpace=wrap;align=left;verticalAlign=bottom;direction=west;" parent="xkZyKJ5uq6sU9dAtWqVg-1" connectable="0" vertex="1">
          <mxGeometry x="599" y="850.75" as="geometry" />
        </mxCell>
        <mxCell id="dRmi1FGJXORjhpo2M5Pf-0" value="Nome Flotta" style="ellipse;whiteSpace=wrap;html=1;align=center;" parent="xkZyKJ5uq6sU9dAtWqVg-1" vertex="1">
          <mxGeometry x="1490" y="1309.25" width="60" height="40" as="geometry" />
        </mxCell>
      </root>
    </mxGraphModel>
  </diagram>
</mxfile>
